<?xml version="1.0" standalone="no"?>
<!DOCTYPE svg PUBLIC "-//W3C//DTD SVG 20010904//EN"
 "http://www.w3.org/TR/2001/REC-SVG-20010904/DTD/svg10.dtd">
<svg version="1.0" xmlns="http://www.w3.org/2000/svg"
 width="1024.000000pt" height="1024.000000pt" viewBox="0 0 1024.000000 1024.000000"
 preserveAspectRatio="xMidYMid meet">

<g transform="translate(0.000000,1024.000000) scale(0.100000,-0.100000)"
fill="#000000" stroke="none">
<path d="M0 8890 c0 -1199 2 -1350 15 -1350 8 0 24 -5 35 -12 26 -17 36 -3 20
26 -7 15 -9 32 -5 43 8 16 9 16 12 -4 5 -27 15 -29 33 -8 10 12 10 15 -1 15
-8 0 -6 5 6 13 10 8 15 19 12 24 -4 6 0 17 9 24 13 10 17 10 24 -1 7 -11 14
-11 32 -3 18 9 19 12 6 12 -14 1 -18 10 -18 46 0 25 5 45 10 45 6 0 10 -18 10
-40 0 -23 5 -40 11 -40 8 0 10 17 6 55 -5 53 5 81 17 48 6 -14 13 -10 46 22
38 37 40 38 40 15 0 -17 3 -21 11 -13 8 8 7 17 -3 32 -11 18 -10 23 10 36 28
20 28 32 0 38 -13 2 -3 5 21 6 30 1 42 5 38 14 -9 25 12 57 38 57 15 0 23 4
20 10 -4 6 1 7 11 3 14 -5 16 -2 12 15 -4 15 -2 19 8 15 8 -3 14 0 14 5 0 6 9
14 21 17 16 5 19 12 15 31 -8 28 16 44 68 44 20 0 36 5 36 10 0 6 -11 10 -25
10 -14 0 -25 5 -25 11 0 5 5 7 11 4 5 -4 15 6 21 22 11 30 11 30 31 10 20 -20
20 -20 38 4 10 13 22 33 25 44 4 11 11 23 17 27 7 4 7 11 -2 21 -10 13 -9 15
8 10 12 -3 21 -13 21 -23 0 -10 10 -20 21 -23 17 -4 19 -3 10 6 -17 17 -14 24
22 37 31 11 31 12 10 21 -27 10 -31 39 -5 39 9 0 26 7 37 16 18 13 20 13 26
-3 5 -16 7 -15 18 5 10 18 9 22 -4 22 -8 0 -15 2 -15 5 0 10 55 54 68 55 19 0
14 20 -5 20 -17 1 -17 1 0 14 9 7 17 18 17 25 0 6 17 11 40 11 28 0 40 4 40
14 0 8 -6 17 -12 19 -7 3 -3 6 8 6 12 1 24 8 28 16 3 8 11 15 18 15 8 0 20 9
28 19 13 19 15 19 27 3 12 -16 14 -16 27 1 7 9 18 17 25 17 6 0 11 4 11 9 0 5
17 20 38 32 20 13 39 26 42 30 3 4 18 12 33 18 29 11 37 31 12 31 -8 0 -15 5
-15 10 0 14 28 12 33 -2 3 -10 8 -10 21 1 10 8 14 21 11 32 -8 25 3 24 26 -3
l19 -23 -6 28 c-7 30 11 39 19 10 4 -14 5 -12 6 5 0 12 7 22 15 22 8 0 18 9
21 20 5 14 15 20 37 20 20 0 39 9 55 27 19 19 27 23 33 13 6 -10 12 -8 26 9
10 11 24 21 31 21 7 0 13 6 13 13 0 6 14 20 31 30 17 9 33 25 36 35 4 17 64
42 101 42 24 0 82 29 82 41 0 5 -5 9 -12 9 -11 0 -2 14 10 16 35 4 91 17 109
26 12 6 29 8 37 5 11 -5 16 0 16 13 0 16 7 20 30 20 17 0 30 5 30 10 0 6 9 10
20 10 11 0 39 12 63 27 23 15 47 28 52 28 6 1 9 6 8 12 -1 6 7 19 17 28 19 18
20 17 20 -9 0 -27 0 -27 21 -7 12 11 34 25 50 31 30 13 39 30 17 30 -7 1 5 7
27 15 40 14 61 11 35 -5 -13 -8 -12 -10 2 -10 9 0 20 5 23 10 3 6 19 10 36 10
25 0 29 4 29 30 l0 29 82 -1 c66 -1 84 2 94 17 7 9 18 14 24 10 7 -4 16 -1 21
6 6 10 35 14 106 16 76 1 99 4 109 17 15 21 42 20 46 -1 3 -16 4 -16 20 0 9 9
28 17 41 17 23 0 25 3 20 40 -6 41 10 57 20 20 3 -11 10 -20 17 -20 7 0 14 9
17 20 10 38 26 21 20 -21 -5 -35 -4 -38 8 -22 7 10 11 21 9 25 -3 5 4 8 14 8
11 0 36 7 56 15 21 9 63 17 93 18 34 2 58 8 61 15 2 8 10 4 22 -10 15 -19 21
-21 31 -10 10 9 10 15 1 24 -7 7 -12 17 -12 22 0 6 11 -1 24 -16 26 -31 41
-35 50 -13 8 21 44 19 48 -2 3 -10 8 1 12 25 8 42 26 59 26 23 0 -11 4 -23 10
-26 5 -3 10 2 10 13 0 29 12 34 28 11 18 -26 54 -21 67 9 9 20 15 22 45 17 19
-4 36 -11 38 -15 2 -5 12 -4 23 3 15 9 23 9 39 -1 25 -15 45 -15 71 1 17 10
23 10 26 0 7 -20 40 -15 56 7 9 13 20 18 31 14 9 -3 24 -3 34 2 9 4 33 9 52
10 75 6 156 20 177 32 24 13 53 16 53 4 0 -12 -58 -34 -113 -42 l-52 -8 44 -1
c42 -1 95 11 134 30 11 6 17 5 17 -2 0 -7 8 -5 19 5 15 13 20 14 24 4 4 -8 6
-7 6 5 1 9 7 17 14 17 8 0 7 4 -3 11 -12 9 -11 10 5 4 11 -4 61 -8 110 -10 50
-2 110 -8 135 -14 59 -14 63 -14 56 4 -4 13 9 15 89 15 52 0 97 4 100 10 3 6
15 10 26 10 10 0 18 3 18 8 -3 19 2 22 17 7 9 -9 29 -19 45 -22 30 -6 39 -29
18 -50 -9 -9 -8 -16 5 -28 15 -15 16 -15 16 5 0 26 26 37 51 21 11 -6 19 -7
19 -3 0 8 43 32 55 32 3 0 5 -7 5 -15 0 -8 -7 -15 -15 -15 -8 0 -15 -4 -15
-10 0 -5 7 -10 15 -10 8 0 15 4 15 9 0 20 34 20 66 0 l34 -21 0 26 c0 14 5 26
11 26 6 0 8 -7 5 -16 -9 -23 12 -44 43 -44 20 0 23 2 11 10 -12 7 -12 12 -2
22 9 9 12 9 12 0 0 -7 16 -12 43 -12 52 0 66 -10 36 -26 l-22 -12 22 -7 c13
-4 28 -2 34 4 15 15 44 14 50 -1 3 -8 6 -6 6 5 1 9 -6 17 -15 17 -8 0 -12 4
-9 10 8 13 45 -10 45 -29 0 -11 3 -11 16 0 14 11 18 11 29 -4 12 -17 14 -17
29 5 l16 22 16 -22 c15 -22 44 -30 44 -12 0 6 9 10 20 10 11 0 20 -4 20 -10 0
-5 5 -10 10 -10 12 0 13 27 1 32 -5 2 -2 10 7 18 14 13 15 12 9 -3 -7 -18 8
-24 18 -7 3 6 10 10 16 10 5 0 9 -4 9 -10 0 -5 -6 -10 -13 -10 -15 0 -41 -40
-31 -48 4 -4 9 -1 11 6 3 6 12 12 22 12 9 0 22 5 29 12 7 7 12 8 12 4 0 -5
-11 -19 -26 -32 -24 -23 -24 -24 -4 -24 11 0 23 6 26 14 4 11 31 14 128 13 94
-2 122 -5 119 -14 -4 -9 7 -13 36 -13 23 0 41 -4 41 -10 0 -5 9 -10 19 -10 11
0 22 -9 26 -19 6 -19 35 -37 35 -22 0 5 18 13 40 19 38 9 40 9 40 -14 0 -24 2
-24 90 -24 90 0 90 0 90 -26 0 -14 4 -23 10 -19 6 3 10 15 10 26 0 36 18 19
25 -23 l7 -42 20 23 c17 22 21 23 43 11 14 -7 25 -17 25 -22 0 -4 7 -8 15 -8
8 0 15 -7 15 -15 0 -8 9 -15 20 -15 11 0 23 7 26 15 8 19 54 20 54 1 0 -7 7
-19 15 -26 12 -10 15 -10 15 0 0 10 3 10 14 1 10 -8 16 -9 21 -1 11 17 37 11
42 -10 6 -23 33 -27 33 -5 0 8 5 15 10 15 6 0 10 -6 10 -14 0 -16 53 -32 70
-21 5 3 18 1 27 -4 15 -9 14 -10 -10 -11 -16 0 -26 -4 -22 -10 3 -5 15 -10 26
-10 10 0 19 -4 19 -10 0 -5 13 -10 29 -10 16 0 31 -6 35 -15 4 -10 -1 -15 -14
-15 -11 0 -20 -4 -20 -10 0 -5 11 -10 25 -10 21 0 25 5 25 30 0 34 14 39 30
10 8 -15 8 -20 -1 -20 -7 0 -5 -8 6 -20 10 -11 23 -20 30 -20 7 0 20 -9 30
-20 25 -28 65 -27 65 1 0 20 1 21 23 5 12 -9 30 -19 40 -23 10 -3 17 -15 17
-29 0 -20 5 -24 29 -24 16 0 31 -6 35 -15 3 -8 0 -15 -6 -15 -17 0 2 -15 20
-16 56 -3 58 -4 42 -14 -12 -8 -9 -10 13 -10 15 0 27 5 27 10 0 6 7 10 15 10
8 0 15 -4 15 -10 0 -5 11 -12 25 -16 27 -7 32 -19 13 -28 -7 -3 19 -4 57 -3
39 2 58 2 43 0 -26 -4 -41 -23 -18 -23 6 0 10 -7 10 -16 0 -10 6 -13 19 -9 13
4 26 -3 44 -24 18 -22 35 -31 63 -33 44 -3 56 -25 29 -52 -9 -9 -11 -16 -5
-16 6 0 13 7 16 15 4 8 12 15 20 15 17 0 18 -17 2 -23 -8 -4 -7 -6 3 -6 9 -1
22 -8 29 -16 9 -11 17 -12 33 -4 16 9 22 8 29 -5 5 -9 19 -16 31 -16 29 -1
132 -54 132 -69 0 -20 29 -32 35 -15 5 13 9 13 30 -5 l25 -20 -36 -1 c-24 0
-39 -5 -43 -16 -9 -23 -7 -29 4 -18 17 17 100 -5 100 -27 0 -12 14 -20 50 -29
52 -13 62 -23 33 -35 -15 -6 -13 -9 12 -21 17 -7 42 -13 57 -14 16 0 39 -13
59 -32 28 -28 34 -30 37 -15 2 9 8 17 13 17 12 0 11 -14 -2 -27 -16 -16 -1
-53 21 -53 10 0 21 -7 24 -16 3 -8 11 -12 18 -8 8 5 9 0 6 -14 -4 -12 -3 -20
2 -17 15 9 60 -20 60 -40 0 -14 3 -16 9 -7 6 10 13 8 32 -7 l24 -20 -30 -2
-30 -1 33 -9 c23 -7 32 -15 28 -24 -7 -19 14 -31 24 -15 11 17 56 -11 71 -43
10 -22 32 -38 72 -53 15 -6 21 -25 21 -76 0 -9 3 -15 7 -13 4 3 21 2 39 -2 32
-6 32 -7 28 -54 -3 -27 -1 -46 3 -43 13 7 79 -7 79 -17 0 -5 -9 -9 -20 -9 -40
0 -19 -20 23 -21 24 -1 32 -4 19 -6 -28 -6 -37 -26 -22 -50 10 -15 10 -14 5
10 -5 26 -5 27 15 10 11 -10 20 -20 20 -24 0 -11 66 -79 76 -79 5 0 17 -9 27
-20 17 -20 16 -20 -10 -15 l-28 5 28 -12 c26 -11 32 -23 29 -60 -1 -13 8 -19
38 -24 36 -6 40 -10 40 -35 0 -16 -5 -29 -11 -29 -6 0 -4 -7 5 -15 8 -8 19
-15 25 -15 6 0 11 -9 11 -20 0 -15 9 -22 30 -26 16 -4 30 -10 30 -14 0 -4 -11
-5 -25 -2 -29 5 -32 -4 -9 -29 14 -16 18 -16 31 -4 21 21 35 18 28 -5 -4 -13
-1 -22 9 -26 13 -5 13 -8 1 -20 -7 -8 -18 -14 -24 -14 -6 0 -8 -7 -5 -15 7
-18 24 -20 24 -2 0 7 9 18 20 25 25 15 27 -2 5 -32 -20 -26 -19 -38 3 -34 14
2 18 -5 20 -39 2 -24 7 -43 13 -43 5 0 9 19 9 43 0 31 3 38 10 27 5 -8 10 -27
10 -42 0 -34 17 -37 23 -5 4 20 4 20 6 1 0 -11 15 -36 32 -55 l30 -34 -23 -6
-23 -7 23 -1 c14 -1 22 -7 22 -19 0 -22 32 -62 49 -62 6 0 11 -5 11 -12 0 -6
10 -23 23 -36 15 -17 18 -26 10 -29 -9 -3 -10 -10 -3 -23 7 -13 24 -20 53 -22
35 -3 42 -6 40 -23 -4 -31 19 -67 52 -81 26 -12 27 -13 8 -14 -31 0 -29 -8 12
-53 27 -30 33 -42 25 -52 -13 -16 7 -55 27 -55 7 0 16 -6 20 -14 4 -8 11 -15
16 -15 4 -1 16 -6 27 -13 14 -9 16 -16 8 -25 -6 -7 -6 -13 -1 -13 5 0 9 -10 9
-22 -1 -16 5 -24 20 -26 16 -2 20 -8 16 -28 -3 -17 0 -24 12 -24 9 0 16 -4 16
-10 0 -5 -7 -10 -15 -10 -8 0 -15 -5 -15 -11 0 -7 15 -9 43 -5 37 5 39 5 17
-6 -25 -11 -25 -11 -3 -15 19 -4 23 -11 23 -44 0 -24 -5 -39 -12 -39 -9 0 -9
-3 0 -12 7 -7 12 -20 12 -30 0 -10 7 -18 15 -18 8 0 15 -4 15 -10 0 -5 11 -10
25 -10 l25 0 0 1960 0 1960 -5120 0 -5120 0 0 -1350z m4090 870 c11 -8 7 -9
-15 -4 -37 8 -45 14 -19 14 10 0 26 -5 34 -10z m1190 0 c0 -12 -8 -12 -35 0
-18 8 -17 9 8 9 15 1 27 -3 27 -9z m-955 -10 c-3 -5 -25 -9 -48 -8 l-42 1 45
7 c25 4 46 8 48 8 2 1 0 -2 -3 -8z m-145 -18 c0 -5 -15 -8 -32 -8 -18 0 -41
-4 -50 -8 -11 -5 -18 -4 -18 2 0 6 10 13 23 15 40 8 77 7 77 -1z m1390 -12 c0
-5 -4 -10 -10 -10 -5 0 -10 5 -10 10 0 6 5 10 10 10 6 0 10 -4 10 -10z m207
-30 c-1 -11 -5 -20 -9 -20 -4 0 -8 9 -8 20 0 11 4 20 9 20 6 0 9 -9 8 -20z
m303 -40 c0 -5 -18 -10 -40 -10 -22 0 -40 5 -40 10 0 6 18 10 40 10 22 0 40
-4 40 -10z m-2665 -20 c3 -5 -3 -10 -15 -10 -12 0 -18 5 -15 10 3 6 10 10 15
10 5 0 12 -4 15 -10z m-140 -30 c-3 -5 -14 -10 -23 -9 -14 0 -13 2 3 9 27 11
27 11 20 0z m3045 -10 c0 -5 -7 -10 -15 -10 -8 0 -15 5 -15 10 0 6 7 10 15 10
8 0 15 -4 15 -10z m-3360 -70 c0 -5 -17 -10 -37 -9 -34 1 -35 2 -13 9 36 11
50 11 50 0z m-320 -55 c0 -8 -6 -15 -14 -15 -20 0 -29 17 -14 23 22 9 28 7 28
-8z m4420 -74 c0 -6 -4 -13 -10 -16 -5 -3 -10 1 -10 9 0 9 5 16 10 16 6 0 10
-4 10 -9z m-5000 -181 c0 -5 -4 -10 -10 -10 -5 0 -10 5 -10 10 0 6 5 10 10 10
6 0 10 -4 10 -10z m5810 -231 c0 -5 -7 -9 -15 -9 -8 0 -15 7 -15 15 0 9 6 12
15 9 8 -4 15 -10 15 -15z m151 -73 c14 -15 11 -23 -12 -29 -15 -4 -19 -2 -15
10 3 8 7 29 7 46 2 28 2 28 6 7 3 -14 9 -29 14 -34z m-41 14 c0 -5 -5 -10 -11
-10 -5 0 -7 5 -4 10 3 6 8 10 11 10 2 0 4 -4 4 -10z m-6717 -197 c-7 -2 -21
-2 -30 0 -10 3 -4 5 12 5 17 0 24 -2 18 -5z m7367 -197 c0 -3 -4 -8 -10 -11
-5 -3 -10 -1 -10 4 0 6 5 11 10 11 6 0 10 -2 10 -4z m-7843 -212 c-3 -3 -12
-4 -19 -1 -8 3 -5 6 6 6 11 1 17 -2 13 -5z m8233 -209 c0 -8 -4 -15 -10 -15
-5 0 -10 7 -10 15 0 8 5 15 10 15 6 0 10 -7 10 -15z m-8714 -242 c-10 -10 -19
5 -10 18 6 11 8 11 12 0 2 -7 1 -15 -2 -18z m8891 5 c-3 -8 -6 -5 -6 6 -1 11
2 17 5 13 3 -3 4 -12 1 -19z m-9037 -178 c0 -5 -7 -10 -16 -10 -8 0 -12 5 -9
10 3 6 10 10 16 10 5 0 9 -4 9 -10z m-83 -52 c-3 -8 -6 -5 -6 6 -1 11 2 17 5
13 3 -3 4 -12 1 -19z m9695 -540 c-9 -9 -12 -7 -12 12 0 19 3 21 12 12 9 -9 9
-15 0 -24z m53 -69 c17 -1 16 -2 -5 -9 -41 -13 -60 -11 -60 6 0 12 6 15 23 10
12 -3 31 -6 42 -7z m175 -269 c0 -5 -4 -10 -10 -10 -5 0 -10 5 -10 10 0 6 5
10 10 10 6 0 10 -4 10 -10z"/>
<path d="M5017 9763 c-30 -5 -27 -23 4 -23 10 0 19 -4 19 -10 0 -5 13 -1 29 8
20 11 26 19 18 24 -12 8 -22 8 -70 1z m48 -13 c-3 -5 -10 -10 -16 -10 -5 0 -9
5 -9 10 0 6 7 10 16 10 8 0 12 -4 9 -10z"/>
<path d="M4508 9728 c9 -9 15 -9 24 0 9 9 7 12 -12 12 -19 0 -21 -3 -12 -12z"/>
<path d="M4640 9730 c0 -5 18 -10 40 -10 22 0 40 5 40 10 0 6 -18 10 -40 10
-22 0 -40 -4 -40 -10z"/>
<path d="M4100 9669 c0 -5 5 -7 10 -4 6 3 10 8 10 11 0 2 -4 4 -10 4 -5 0 -10
-5 -10 -11z"/>
<path d="M5400 9661 l-45 -6 38 -8 c28 -6 41 -4 53 8 8 8 12 14 7 13 -4 0 -28
-4 -53 -7z"/>
<path d="M6145 9580 c-3 -5 -1 -10 4 -10 6 0 11 5 11 10 0 6 -2 10 -4 10 -3 0
-8 -4 -11 -10z"/>
<path d="M3227 9519 c7 -7 15 -10 18 -7 3 3 -2 9 -12 12 -14 6 -15 5 -6 -5z"/>
<path d="M2880 9459 c0 -5 5 -7 10 -4 6 3 10 8 10 11 0 2 -4 4 -10 4 -5 0 -10
-5 -10 -11z"/>
<path d="M3724 9367 c-22 -25 -63 -86 -93 -135 -56 -94 -94 -145 -106 -142
-11 3 -95 -79 -95 -92 0 -9 -3 -9 -9 1 -8 12 -12 10 -21 -10 -6 -14 -21 -29
-33 -34 -12 -6 -26 -20 -32 -32 -5 -13 -14 -23 -20 -23 -6 0 -19 -16 -30 -36
-11 -21 -21 -31 -24 -23 -2 7 -14 -9 -27 -36 -13 -28 -23 -44 -24 -37 0 6 -3
12 -8 12 -8 0 -19 -20 -48 -83 -11 -27 -19 -35 -25 -26 -5 9 -12 -3 -19 -33
-8 -31 -16 -45 -25 -42 -8 3 -15 -7 -19 -31 -4 -20 -13 -38 -21 -41 -7 -3 -16
-28 -20 -56 -4 -29 -10 -45 -15 -38 -8 13 -20 -20 -20 -58 0 -13 -4 -20 -10
-17 -6 4 -10 -8 -10 -28 0 -19 -6 -46 -13 -60 -8 -14 -13 -44 -13 -66 1 -23
-3 -41 -8 -41 -5 0 -6 -18 -3 -40 3 -22 2 -40 -3 -40 -9 0 -5 -178 5 -210 5
-16 4 -20 -5 -15 -8 5 -10 2 -6 -11 3 -11 8 -50 11 -87 9 -103 40 -212 87
-308 l43 -87 -27 -187 c-15 -104 -30 -191 -33 -194 -11 -10 -22 21 -29 76 -6
54 -69 238 -88 258 -6 6 -7 3 -3 -10 3 -11 -1 -8 -10 8 -9 15 -13 33 -9 39 4
7 3 8 -4 4 -11 -6 -16 6 -13 27 0 4 -3 7 -9 7 -5 0 -10 10 -10 23 -1 26 -24
60 -34 50 -4 -4 -4 0 -1 9 4 10 -1 24 -13 36 -11 11 -18 23 -15 26 4 3 1 6 -5
6 -7 0 -12 7 -12 16 0 8 -4 12 -10 9 -5 -3 -10 3 -10 14 0 12 -4 21 -10 21 -5
0 -10 9 -10 20 0 11 -6 19 -12 18 -7 -2 -12 3 -10 11 2 11 0 12 -11 3 -12 -10
-13 -8 -10 12 3 13 -1 27 -8 31 -8 6 -10 4 -4 -5 5 -9 4 -11 -3 -6 -7 4 -12
17 -12 28 0 12 -3 18 -7 15 -4 -4 -13 7 -21 25 -13 29 -15 31 -21 13 -7 -17
-8 -16 -15 8 -3 15 -11 25 -16 22 -6 -3 -10 3 -10 14 0 11 -5 23 -12 27 -7 5
-8 3 -3 -6 5 -9 4 -11 -3 -6 -7 4 -12 14 -12 22 0 8 -4 13 -9 9 -5 -3 -12 4
-16 15 -4 11 -11 18 -16 15 -5 -4 -9 -1 -9 5 0 6 -4 8 -10 5 -5 -3 -10 2 -10
12 0 15 -2 15 -9 4 -8 -12 -11 -9 -16 12 -4 15 -13 27 -21 27 -8 0 -14 6 -14
13 0 8 -4 7 -10 -3 -8 -13 -10 -12 -10 4 0 11 -3 16 -7 13 -3 -4 -13 2 -20 13
-8 11 -18 18 -23 15 -4 -3 -11 2 -14 11 -3 8 -10 13 -15 9 -6 -3 -13 1 -18 8
-4 8 -22 22 -40 30 -17 9 -46 34 -63 54 -19 22 -29 29 -25 18 4 -11 16 -49 27
-85 11 -36 23 -67 27 -70 3 -3 8 -21 9 -40 2 -19 8 -42 13 -51 4 -9 11 -31 14
-50 9 -52 15 -69 26 -69 6 0 7 -4 4 -10 -3 -5 -3 -16 2 -22 4 -7 9 -22 10 -32
2 -11 8 -25 14 -33 6 -7 8 -13 4 -13 -5 0 0 -10 11 -22 10 -12 13 -18 7 -14
-9 5 -11 2 -7 -8 3 -9 10 -16 16 -16 5 0 6 -5 3 -10 -3 -6 1 -13 10 -16 12 -5
13 -9 5 -14 -8 -5 -8 -11 2 -21 7 -8 14 -21 16 -29 2 -8 9 -19 16 -25 7 -5 11
-16 9 -22 -3 -7 0 -13 7 -13 6 0 8 -4 5 -10 -3 -5 -1 -10 5 -10 6 0 9 -4 6 -9
-3 -5 6 -23 22 -39 15 -17 28 -36 30 -44 2 -7 8 -15 13 -16 5 -2 7 -8 3 -13
-3 -5 2 -12 10 -15 9 -3 16 -12 16 -19 0 -7 12 -23 28 -35 15 -12 20 -18 12
-14 -8 4 1 -9 20 -29 19 -20 41 -37 48 -37 6 0 11 -6 10 -12 -2 -7 3 -12 10
-10 8 1 11 -2 8 -7 -7 -11 79 -83 88 -74 3 4 6 1 6 -5 0 -7 5 -12 11 -12 5 0
7 5 3 12 -4 7 -3 8 5 4 6 -4 9 -11 7 -15 -6 -10 71 -49 112 -57 17 -4 44 -2
60 4 16 5 33 7 38 3 34 -24 34 -34 4 -262 -34 -253 -57 -523 -63 -744 -2 -82
-2 -130 0 -106 2 25 12 51 21 59 9 7 11 10 3 6 -11 -5 -13 -3 -8 9 4 10 1 17
-5 17 -7 0 -4 6 5 13 13 9 19 40 27 132 5 66 14 177 20 246 6 69 8 146 5 170
-3 27 -2 37 3 25 6 -13 12 18 21 95 23 198 39 291 53 300 10 7 10 11 1 17 -9
6 -9 19 -2 52 6 25 8 63 5 84 -2 22 -1 34 3 28 4 -7 15 42 25 108 l18 120 54
36 c67 45 267 284 251 301 -3 3 5 17 19 31 22 25 25 31 23 48 0 4 5 10 12 15
7 4 14 15 15 25 2 9 8 20 15 24 6 4 8 13 5 19 -4 6 -3 11 1 11 5 0 14 9 21 21
11 17 11 20 0 13 -8 -4 -7 0 3 12 9 10 26 37 39 58 20 33 21 39 7 33 -12 -4
-7 6 14 32 17 22 28 44 25 49 -3 5 4 22 16 38 14 17 18 29 11 31 -7 3 -3 17
13 40 14 22 20 39 15 43 -6 3 -3 18 9 38 11 18 15 32 10 32 -6 0 -3 14 6 31
13 26 14 33 2 40 -7 5 -8 9 -3 9 6 0 15 16 21 35 6 19 7 35 3 35 -5 0 -9 -5
-9 -12 0 -6 -2 -9 -5 -6 -3 3 2 21 10 41 18 43 19 50 5 42 -14 -9 -12 5 5 35
17 31 19 44 4 34 -12 -7 -8 19 8 63 6 16 5 17 -12 3 -18 -15 -18 -14 -1 19 16
30 16 33 2 28 -14 -5 -15 -3 -6 13 13 25 13 63 0 55 -10 -6 -8 13 7 68 2 9 1
17 -4 17 -5 0 -8 18 -6 40 1 22 -2 38 -7 35 -5 -3 -7 17 -3 47 6 49 5 52 -11
39 -15 -13 -16 -12 -6 13 5 15 9 40 9 54 -3 51 32 217 56 267 13 27 23 51 21
53 -2 1 -21 -17 -42 -41z m-757 -2924 c-3 -10 -5 -4 -5 12 0 17 2 24 5 18 2
-7 2 -21 0 -30z"/>
<path d="M6903 9353 c9 -2 25 -2 35 0 9 3 1 5 -18 5 -19 0 -27 -2 -17 -5z"/>
<path d="M1760 9030 c0 -5 5 -10 10 -10 6 0 10 5 10 10 0 6 -4 10 -10 10 -5 0
-10 -4 -10 -10z"/>
<path d="M8113 8793 c-19 -7 -16 -26 3 -19 9 4 23 1 31 -6 13 -10 15 -9 12 7
-4 20 -24 28 -46 18z"/>
<path d="M1335 8720 c-19 -7 -19 -8 -2 -15 19 -8 31 -2 26 13 -2 5 -13 6 -24
2z"/>
<path d="M970 8459 c0 -11 5 -17 10 -14 6 3 10 13 10 21 0 8 -4 14 -10 14 -5
0 -10 -9 -10 -21z"/>
<path d="M7683 8399 c3 -10 11 -46 18 -80 6 -35 17 -68 23 -74 7 -5 27 -36 45
-68 18 -32 40 -61 47 -64 8 -3 14 -8 14 -13 0 -4 -24 1 -52 11 -29 10 -90 23
-135 30 -46 8 -83 17 -83 21 0 4 16 4 35 1 30 -5 39 -1 70 30 50 50 44 97 -12
97 -21 0 -23 -4 -19 -37 2 -21 1 -28 -1 -15 -2 12 -11 22 -19 22 -8 0 -14 5
-14 10 0 6 -9 10 -20 10 -20 0 -23 -8 -22 -75 1 -24 0 -26 -6 -10 -20 52 -64
135 -73 135 -13 0 -11 -77 2 -103 6 -12 21 -32 32 -44 11 -13 16 -23 10 -23
-5 0 -20 12 -34 26 -13 14 -35 32 -49 39 -27 14 -150 31 -150 21 0 -9 70 -70
89 -77 8 -3 -35 -9 -96 -13 -61 -4 -125 -11 -142 -16 -42 -12 -61 13 -68 89
-3 34 -9 61 -14 61 -4 0 -17 -13 -28 -29 -27 -38 -28 -81 -2 -88 12 -3 17 -11
14 -19 -3 -8 1 -14 8 -14 15 -1 -47 -30 -62 -30 -5 0 -9 7 -9 15 0 12 -5 12
-40 0 -23 -8 -40 -10 -40 -4 0 5 6 12 14 15 8 3 19 19 25 36 23 65 7 89 -29
46 l-19 -23 5 35 c4 21 0 49 -9 70 -12 26 -16 30 -17 15 -1 -16 -4 -15 -16 10
l-14 30 4 -40 c4 -34 3 -38 -8 -22 -7 9 -16 17 -20 17 -14 0 -5 -68 14 -103
11 -20 20 -43 20 -51 0 -7 7 -19 15 -26 24 -20 18 -28 -25 -32 -22 -2 -40 0
-40 4 0 5 13 8 30 8 28 0 29 2 19 24 -11 23 -55 44 -67 31 -3 -3 1 -5 8 -5 11
0 11 -3 2 -12 -7 -7 -12 -30 -12 -51 0 -34 3 -39 20 -34 52 13 0 -21 -93 -61
-4 -2 1 11 13 30 23 38 28 118 7 118 -16 0 -59 -45 -76 -78 -7 -13 -11 -44
-10 -69 3 -40 0 -49 -23 -66 -22 -17 -30 -18 -42 -8 -13 11 -13 16 7 43 18 24
22 43 22 101 0 61 -5 83 -36 149 l-35 76 -24 -61 c-30 -75 -33 -161 -7 -200
25 -38 21 -43 -7 -10 -23 27 -106 70 -106 55 0 -4 11 -29 24 -55 19 -38 20
-47 8 -42 -21 8 -82 -14 -82 -29 0 -7 11 -25 25 -40 19 -21 33 -26 71 -26 45
0 46 -1 40 -26 -5 -19 -3 -25 6 -22 7 3 15 13 17 24 5 27 21 44 42 44 29 0 23
-11 -34 -67 -48 -46 -53 -48 -49 -26 3 16 1 24 -5 20 -6 -4 -14 -23 -17 -43
-10 -53 -34 -40 -74 41 -37 73 -39 86 -27 207 6 58 4 73 -18 122 -14 31 -43
76 -64 101 l-38 46 -7 -38 c-4 -21 -7 -72 -7 -113 -1 -86 17 -134 70 -194 18
-21 54 -81 79 -132 44 -89 46 -94 31 -118 -17 -28 -29 -29 -45 -4 -7 12 -6 24
4 42 28 54 -34 110 -135 122 l-59 7 22 -34 21 -34 -55 -15 c-30 -9 -56 -20
-56 -25 -3 -18 112 -68 165 -72 68 -5 97 -12 97 -21 0 -4 -21 -43 -46 -86
l-46 -78 -31 51 c-43 69 -91 93 -182 89 l-67 -3 51 -67 c28 -37 60 -72 70 -78
26 -13 94 -13 108 1 7 7 19 9 28 6 14 -6 14 -10 -1 -44 -14 -33 -26 -67 -51
-143 -4 -13 -6 -13 -16 1 -22 29 -81 59 -117 59 -19 0 -62 -9 -95 -20 -58 -18
-59 -19 -22 -19 20 -1 37 -6 37 -12 0 -5 -5 -7 -12 -3 -7 4 -8 3 -4 -4 4 -6
14 -8 23 -5 10 4 14 2 9 -5 -4 -7 9 -14 36 -20 32 -7 37 -10 18 -12 -14 -1
-32 -1 -39 0 -12 1 -12 -1 -3 -13 6 -7 9 -17 6 -20 -11 -10 43 -19 68 -11 13
4 38 17 57 30 19 13 36 22 38 20 4 -4 -27 -189 -32 -194 -2 -2 -32 10 -67 27
-54 27 -68 30 -97 21 -40 -11 -72 -39 -113 -98 -23 -33 -26 -41 -12 -34 11 5
46 15 79 23 33 7 77 21 97 31 21 10 52 18 71 18 l34 0 6 -162 c6 -171 4 -178
-39 -178 -16 0 -26 -12 -42 -49 -17 -42 -18 -49 -5 -44 11 4 14 2 9 -5 -4 -8
0 -12 11 -12 11 0 25 -6 32 -12 8 -7 2 5 -12 26 -14 22 -23 44 -20 49 4 6 10
0 15 -12 4 -12 19 -36 32 -54 34 -44 50 -87 36 -101 -7 -7 -10 -5 -10 7 0 12
-8 17 -27 16 -25 -2 -26 -2 -5 -6 23 -5 23 -5 5 -26 -16 -20 -16 -20 0 -8 9 8
21 11 24 7 4 -4 2 -10 -4 -14 -9 -5 -6 -11 8 -20 18 -11 19 -10 13 12 -3 13
-1 27 5 30 6 4 11 0 11 -8 0 -9 4 -16 9 -16 22 0 15 -36 -9 -48 -24 -12 -24
-12 9 -7 19 3 36 7 38 9 6 5 -75 158 -93 178 -18 19 -13 33 16 41 17 4 23 -4
40 -60 11 -36 20 -70 20 -75 0 -11 5 -22 69 -162 23 -49 41 -91 41 -93 0 -14
-45 5 -46 20 -1 12 -1 13 3 2 5 -16 23 -21 23 -7 0 5 -6 16 -13 27 -18 24 -39
11 -31 -21 4 -14 2 -24 -5 -24 -6 0 -11 10 -11 23 0 15 -9 29 -25 37 l-24 13
24 19 c14 11 25 27 25 36 0 12 -9 8 -31 -16 -26 -28 -30 -38 -25 -67 5 -24 11
-32 21 -28 8 3 15 1 15 -4 0 -6 -45 -11 -105 -12 -58 -1 -105 3 -105 7 0 5 12
10 26 10 15 0 29 4 33 9 12 19 36 19 51 2 13 -16 17 -17 33 -5 18 14 18 16 -3
55 -12 24 -32 46 -47 52 -39 14 -47 7 -24 -23 12 -14 21 -30 21 -35 0 -12
-140 -73 -167 -73 -17 0 -23 6 -24 23 l0 22 -11 -22 c-16 -32 -30 -28 -55 15
l-22 37 -1 -37 c0 -31 -4 -38 -19 -38 -19 0 -19 -7 -15 -135 5 -122 4 -134
-11 -129 -10 4 -15 14 -12 25 3 12 0 16 -9 12 -16 -6 2 -53 21 -53 8 0 14 -41
18 -136 4 -98 9 -139 19 -145 10 -7 10 -9 1 -9 -14 0 -18 -46 -5 -53 4 -3 16
7 26 21 19 25 19 25 1 18 -18 -7 -18 -6 0 14 13 14 22 17 30 10 10 -8 18 -4
33 15 30 38 52 33 53 -12 1 -21 1 -45 0 -53 -1 -8 20 9 46 38 27 28 54 52 61
52 7 0 10 -5 7 -10 -8 -13 12 -75 37 -115 16 -25 18 -26 13 -6 -5 16 -4 21 4
17 6 -4 11 -18 11 -32 0 -18 4 -23 13 -18 7 5 7 1 -3 -12 -8 -10 -10 -16 -6
-12 5 4 15 3 23 -4 20 -16 26 -4 31 60 2 43 -2 66 -16 95 l-20 37 23 0 c12 0
28 -7 35 -15 7 -8 17 -12 23 -8 6 4 7 1 2 -7 -5 -8 3 -23 25 -42 18 -15 35
-27 36 -25 4 3 -8 48 -20 77 -9 22 136 27 158 5 17 -17 67 -20 64 -4 -2 6 3
14 10 16 14 6 43 -56 44 -95 1 -40 -24 -162 -33 -162 -4 0 -10 9 -14 19 -15
47 -78 27 -125 -39 -25 -35 -23 -36 54 -10 77 26 78 26 71 -12 -3 -18 -7 -46
-9 -63 -4 -39 -16 -65 -28 -65 -5 0 -6 5 -3 10 8 12 -1 13 -43 1 -20 -6 -32
-6 -32 0 0 5 9 9 20 9 11 0 20 4 20 10 0 6 9 6 25 0 21 -8 25 -7 25 10 0 28
-52 27 -93 -2 -56 -39 -58 -65 -3 -54 45 9 88 7 103 -6 11 -8 12 -7 7 6 -4 11
-1 16 10 16 9 0 16 -6 16 -12 0 -26 -13 -58 -22 -58 -6 0 -7 7 -4 16 5 13 2
15 -14 11 -11 -3 -20 0 -20 6 0 6 -2 8 -5 5 -9 -8 6 -38 16 -33 5 3 11 -5 15
-19 4 -17 -5 -47 -32 -100 -21 -42 -42 -76 -46 -76 -4 0 -8 -7 -8 -15 0 -30
-160 -172 -263 -233 -99 -59 -279 -132 -324 -132 -21 0 -22 -1 -9 -42 8 -24
33 -86 56 -138 22 -52 57 -135 76 -185 19 -49 43 -113 54 -140 11 -28 20 -54
20 -58 0 -5 9 -28 20 -53 21 -45 36 -59 27 -24 -3 13 -1 18 6 13 6 -4 8 2 5
15 -4 12 -2 20 2 17 5 -3 10 -1 12 4 1 4 13 12 26 15 19 6 22 4 22 -19 0 -22
2 -24 14 -13 10 9 11 18 5 31 -15 26 15 22 34 -6 14 -19 16 -20 16 -4 1 11 5
15 13 11 7 -4 8 -3 4 4 -4 7 -16 12 -27 12 -23 0 -25 15 -3 24 8 3 27 -2 42
-11 27 -17 27 -17 10 3 -17 19 -16 21 35 52 29 18 58 32 65 32 8 0 12 -19 12
-58 0 -46 4 -60 19 -69 18 -11 20 -9 24 20 l3 32 8 -32 c6 -23 14 -33 27 -33
22 0 24 -11 7 -29 -11 -10 -10 -11 5 -6 9 4 17 15 18 24 0 12 2 12 8 -4 7 -16
9 -14 14 13 8 40 0 86 -25 135 -11 22 -18 41 -15 43 4 4 176 43 178 41 5 -10
3 -60 -3 -63 -24 -15 77 -155 110 -153 11 0 12 2 4 6 -6 2 -10 9 -7 13 3 5 0
12 -6 16 -8 5 -9 3 -4 -6 6 -9 4 -11 -4 -6 -7 5 -10 11 -7 14 3 3 1 11 -6 19
-19 23 -3 24 23 2 13 -12 43 -37 67 -57 24 -19 41 -41 38 -48 -3 -7 -2 -15 2
-18 4 -2 8 23 9 56 1 43 -4 73 -19 104 -21 46 -88 114 -112 114 -8 0 -17 4
-20 9 -8 12 95 13 173 1 94 -15 100 -18 94 -40 -3 -11 0 -20 6 -20 6 0 11 4
11 9 0 20 36 20 112 -1 73 -20 83 -25 113 -67 19 -25 43 -58 54 -72 18 -23 18
-26 3 -37 -14 -9 -14 -11 -1 -6 24 7 43 -40 23 -57 -14 -11 -13 -14 5 -21 12
-4 21 -14 21 -22 0 -7 6 -16 13 -19 8 -3 14 1 14 9 0 7 -4 11 -9 8 -4 -3 -8 1
-8 9 0 8 -7 18 -16 21 -8 3 -12 11 -9 17 10 14 65 -39 59 -56 -3 -7 -1 -16 5
-20 7 -4 8 0 4 11 -5 13 -3 15 8 9 19 -12 -5 21 -42 55 -29 27 -51 64 -43 73
3 2 28 -8 57 -24 29 -16 57 -29 62 -28 6 0 -16 13 -47 29 -31 16 -64 40 -72
52 -9 13 -21 23 -26 23 -12 0 -62 67 -55 74 3 2 18 -7 33 -21 31 -28 149 -97
138 -80 -3 6 2 13 11 15 11 3 8 5 -7 4 -28 0 -102 36 -121 60 -11 13 -7 12 26
-2 22 -10 61 -24 88 -33 46 -16 61 -37 32 -48 -8 -4 -12 -11 -9 -16 4 -6 9 -6
14 2 4 7 13 9 20 5 9 -6 9 -9 -1 -16 -11 -6 -10 -9 4 -14 11 -5 28 3 48 20 41
34 51 24 52 -56 1 -52 6 -68 24 -87 17 -17 23 -19 23 -8 0 9 -9 20 -20 26
l-21 11 21 33 c11 18 20 43 20 55 0 12 6 24 13 27 18 6 123 -21 110 -29 -6 -4
-25 -2 -44 3 -19 6 -37 10 -41 10 -15 0 -8 -27 12 -45 19 -17 21 -17 38 -2 32
29 32 19 1 -15 -16 -18 -29 -36 -29 -40 0 -11 34 -10 48 2 9 7 9 7 2 -2 -13
-16 -13 -75 0 -83 6 -3 10 -12 10 -18 0 -7 -4 -6 -10 3 -8 12 -10 9 -10 -13
l0 -27 34 37 c18 21 36 45 39 53 4 12 6 11 6 -2 1 -10 6 -18 12 -18 5 0 7 -5
4 -10 -4 -6 -3 -24 0 -41 l7 -31 39 42 c24 25 39 52 40 68 2 65 -4 98 -24 119
l-20 23 42 0 c43 0 44 -1 56 -53 4 -19 2 -26 -5 -22 -15 9 -12 -11 9 -58 11
-23 39 -61 63 -85 l44 -42 3 45 c3 64 -14 116 -54 166 -19 24 -35 46 -35 49 0
3 15 5 33 5 17 0 49 4 70 8 35 8 38 7 28 -10 -13 -25 2 -48 25 -39 16 6 16 9
4 17 -12 9 -12 10 3 5 11 -3 17 0 17 9 0 8 -4 15 -10 15 -5 0 -10 4 -10 9 0 5
9 7 20 4 25 -7 26 -27 0 -53 -12 -12 -17 -26 -13 -37 6 -16 5 -16 -10 -4 -27
21 -31 6 -6 -18 22 -21 89 -30 89 -13 0 5 -14 8 -30 7 -19 -1 -29 3 -27 9 2 6
12 10 21 10 16 -2 16 -1 1 16 -10 11 -12 20 -7 24 6 3 12 1 14 -4 2 -6 4 7 4
30 1 23 -3 40 -10 41 -15 1 55 27 76 28 22 1 36 -63 18 -84 -7 -8 -9 -15 -4
-15 5 0 20 20 33 45 20 37 22 48 11 58 -10 10 -12 8 -7 -10 3 -13 1 -26 -4
-29 -5 -3 -9 -1 -9 5 0 5 -3 16 -6 25 -9 24 24 32 41 10 11 -15 16 -17 26 -6
10 9 10 15 1 24 -9 9 -2 17 30 35 22 13 42 22 44 20 2 -2 -7 -10 -21 -17 -14
-7 -25 -22 -25 -32 0 -11 -7 -26 -15 -34 -10 -10 -15 -35 -15 -72 0 -51 1 -54
15 -36 8 10 18 36 21 57 l7 39 34 -36 c38 -39 53 -39 53 0 0 17 -12 32 -40 52
-21 15 -39 30 -40 35 0 7 29 11 70 8 l25 -1 -28 25 c-26 23 -27 25 -6 22 12
-1 24 4 27 12 3 9 0 11 -9 6 -12 -7 -12 -6 0 6 10 11 15 11 18 2 3 -7 9 -13
14 -13 4 0 6 7 3 15 -4 11 -2 13 9 9 11 -4 16 2 19 18 2 17 11 24 31 26 15 2
27 -1 27 -7 0 -6 5 -11 10 -11 7 0 7 8 -1 22 -10 18 -8 24 11 40 13 10 30 22
37 27 12 6 13 15 3 52 -7 24 -13 49 -15 54 -1 6 -9 27 -19 47 -22 52 -20 55
14 18 17 -18 34 -28 41 -24 8 5 6 10 -7 17 -26 14 -53 49 -54 67 0 8 20 -8 45
-35 24 -28 44 -44 45 -37 0 7 -17 31 -37 53 -28 30 -43 39 -59 35 -18 -5 -23
0 -28 22 -4 15 -9 35 -12 45 -3 10 -2 17 3 16 16 -4 43 13 43 27 0 12 -4 12
-29 0 -28 -15 -29 -15 -36 12 -3 15 -24 73 -47 129 -46 118 -46 157 2 105 28
-31 67 -52 96 -52 23 0 16 39 -12 66 -20 21 -33 25 -65 22 -21 -2 -39 -2 -39
-1 0 1 24 16 53 33 55 32 58 41 4 14 -33 -17 -46 -28 -191 -153 -91 -79 -234
-165 -222 -135 4 11 -1 24 -13 35 -19 18 -20 18 -14 -15 6 -40 -5 -49 -96 -70
-56 -13 -61 -13 -66 4 -7 21 -45 58 -45 43 0 -5 9 -18 20 -28 31 -28 24 -35
-36 -35 -44 0 -55 3 -51 14 3 8 -1 17 -9 20 -25 10 -34 7 -34 -9 0 -19 -48
-19 -105 0 l-40 13 38 1 c20 1 40 1 45 2 22 3 47 26 77 74 19 29 40 56 47 59
7 3 -7 3 -32 0 -94 -12 -211 -98 -157 -117 6 -2 4 -3 -5 -2 -9 2 -19 -2 -21
-8 -2 -6 -66 11 -163 43 -87 29 -197 60 -243 70 -69 14 -86 21 -92 38 -5 14
-4 22 2 22 6 0 7 5 4 10 -13 21 -27 9 -23 -20 4 -28 2 -30 -25 -30 l-30 0 27
33 c14 17 33 47 41 66 13 28 17 32 30 21 9 -7 18 -11 20 -8 3 3 -1 10 -9 17
-11 9 -12 18 -3 42 10 25 16 29 37 24 31 -6 94 29 84 48 -21 35 -47 68 -51 63
-3 -3 4 -18 16 -34 12 -17 21 -34 21 -39 0 -15 -45 -32 -60 -23 -8 5 -18 6
-24 3 -5 -4 -7 0 -4 8 26 65 39 104 54 164 9 39 21 74 25 79 17 19 19 -2 5
-42 -8 -22 -12 -42 -9 -45 2 -3 -1 -16 -7 -29 l-12 -23 20 20 c14 13 22 35 23
63 2 27 8 42 16 42 16 0 17 -17 2 -22 -7 -2 -4 -10 7 -18 16 -14 17 -13 11 3
-7 19 9 24 16 5 4 -10 6 -10 6 0 1 6 -7 20 -17 30 -17 17 -17 20 -3 29 12 8 9
10 -14 6 -25 -3 -27 -2 -12 7 9 6 17 16 17 22 0 6 -6 6 -15 -2 -11 -9 -19 -10
-26 -3 -14 14 -2 89 17 106 28 25 39 33 57 40 35 13 18 29 -28 25 -41 -3 -45
-1 -45 19 0 16 8 23 33 29 17 4 27 9 21 11 -6 2 3 19 20 37 17 19 43 48 57 65
18 21 36 31 55 31 l28 0 -30 -32 c-19 -20 -23 -29 -12 -25 10 3 17 3 17 -1 -7
-46 15 -40 53 13 18 25 35 45 39 45 3 0 2 -19 -3 -42 -12 -51 0 -104 37 -163
23 -38 24 -38 25 -14 0 15 7 46 15 70 17 46 13 89 -11 127 -14 21 -13 22 13
22 35 0 42 -6 74 -55 19 -28 46 -51 90 -74 35 -19 72 -41 83 -50 17 -15 18
-15 13 4 -3 11 -9 34 -13 50 -10 44 -41 103 -61 114 -15 9 -11 10 18 11 26 0
42 -7 60 -26 13 -14 44 -40 70 -58 l45 -33 2 171 c3 190 15 327 32 354 10 14
11 13 6 -8 l-5 -25 20 25 c23 28 21 73 -7 138 l-16 37 -12 -26 c-10 -24 -16
-26 -80 -28 -63 -2 -72 0 -88 21 -12 15 -16 17 -12 6 7 -20 23 -19 -256 -24
-151 -2 -184 1 -160 16 6 4 10 20 8 36 l-3 29 -36 -39 -37 -39 -112 1 c-62 1
-115 4 -119 8 -8 8 37 44 56 44 12 0 12 3 -2 16 -14 15 -18 15 -40 0 -13 -9
-26 -16 -29 -16 -2 0 -17 20 -33 45 -15 25 -31 45 -35 45 -12 0 -10 -7 22 -58
30 -50 38 -82 20 -82 -5 0 -10 6 -10 13 0 6 -12 37 -26 67 -27 58 -38 93 -26
86 4 -2 41 28 82 66 41 38 65 64 52 58 -13 -6 -38 -8 -59 -4 -21 4 -34 3 -30
-2 3 -6 -3 -10 -14 -10 -26 0 -18 20 9 24 12 2 22 8 22 13 0 16 -26 10 -54
-12 -20 -16 -26 -29 -26 -62 l-1 -42 -26 49 -25 50 69 65 c39 36 76 75 84 85
13 17 11 17 -28 -3 -24 -12 -49 -34 -57 -49 -8 -15 -28 -40 -44 -55 l-30 -29
-6 29 c-7 37 -2 83 12 110 18 33 14 38 -8 12 -12 -16 -19 -19 -20 -10 0 8 7
22 15 31 14 15 13 20 -5 43 -11 14 -20 28 -20 31 0 3 18 19 40 35 44 31 37 41
-22 33 -27 -3 -39 -10 -44 -26 -7 -18 -9 -17 -15 14 -9 41 -3 70 15 70 7 0 21
6 31 14 19 14 19 15 1 35 -11 12 -25 21 -33 21 -7 0 -13 9 -13 20 0 17 8 20
83 23 l82 3 -81 2 -82 2 9 38 c12 54 57 151 92 197 l30 41 22 -21 c12 -11 36
-28 54 -37 36 -20 34 -27 -14 -83 l-26 -30 4 48 c5 46 4 47 -14 31 -12 -10
-16 -21 -10 -28 17 -23 20 -62 5 -90 -8 -16 -13 -30 -12 -32 2 -1 32 36 68 83
57 76 75 91 145 129 44 24 91 44 105 45 l25 2 -25 4 c-23 5 -23 6 15 30 56 34
80 43 160 59 l70 14 -62 -4 c-69 -4 -146 -36 -207 -85 -21 -17 -42 -31 -46
-31 -16 0 -17 55 -2 87 35 74 -31 53 -118 -39 l-69 -72 30 -18 c16 -10 29 -22
29 -28 0 -15 -68 33 -73 52 -3 10 3 18 14 21 11 3 19 12 19 21 0 17 -29 11
-42 -8 -6 -8 -8 -8 -8 0 0 6 11 21 24 33 20 19 24 20 29 7 11 -27 30 -19 23 9
-5 18 -2 25 9 25 8 0 15 5 15 10 0 6 8 10 19 10 10 0 39 9 64 20 54 24 90 19
106 -16 19 -42 91 -22 91 25 0 21 3 22 48 15 119 -17 240 -76 324 -159 57 -57
141 -176 168 -239 10 -25 23 -46 27 -46 5 0 40 18 78 41 39 22 77 44 85 49 13
7 15 -3 14 -68 -2 -58 -1 -66 4 -33 l7 45 28 -42 c33 -51 47 -53 47 -7 0 45
-23 100 -46 113 -17 9 -16 11 9 23 21 10 30 10 39 1 18 -18 30 -14 23 8 -5 15
1 23 27 34 18 9 44 23 57 33 23 17 24 17 17 -5 -8 -23 12 -139 24 -147 12 -8
40 60 40 97 0 18 -7 44 -16 57 -11 15 -13 26 -6 33 7 7 15 -1 27 -25 9 -19 28
-45 42 -58 l26 -24 -5 76 -5 77 34 16 c18 9 33 20 33 26 0 6 -18 47 -40 91
l-41 80 22 37 22 37 -24 -22 c-31 -28 -42 -29 -34 -3 3 11 1 36 -6 55 -13 36
-29 47 -29 20 0 -24 -16 -18 -49 20 -38 44 -33 61 33 91 28 13 47 24 42 24 -6
0 -5 5 2 12 19 19 14 28 -13 28 -16 0 -25 6 -25 15 0 8 5 15 10 15 17 0 11 19
-10 30 -15 8 -23 6 -40 -12 -14 -15 -20 -18 -21 -7 0 8 -4 6 -9 -6 -8 -19 -9
-19 -9 3 -1 13 -5 20 -11 17 -5 -3 -7 -20 -4 -38 l5 -32 -18 25 c-45 62 -80
78 -90 40 -5 -19 -6 -19 -35 -2 -22 13 -27 22 -22 37 3 11 6 30 6 43 0 23 12
29 23 12 3 -5 10 -10 15 -10 15 0 70 51 70 65 0 15 -38 27 -46 14 -3 -5 5 -9
17 -9 18 0 19 -2 9 -15 -7 -8 -17 -15 -23 -15 -6 0 -8 3 -4 6 8 9 -14 30 -41
38 -24 8 -30 26 -9 26 22 1 67 49 73 79 l6 30 -56 -30 c-31 -17 -60 -38 -65
-47 -5 -9 -13 -14 -16 -10 -4 4 11 40 34 81 23 41 41 77 41 81 0 10 -54 -5
-72 -21 -23 -20 -31 -62 -20 -109 7 -31 5 -45 -10 -69 -10 -16 -18 -25 -19
-20 -1 6 -2 21 -2 34 -1 13 -13 31 -27 40 -20 13 -23 13 -16 1 5 -8 16 -23 24
-33 20 -23 8 -34 -14 -12 -19 19 -34 6 -34 -31 0 -18 -5 -20 -26 -16 -19 3
-25 1 -20 -7 4 -6 3 -11 -3 -11 -5 0 -12 4 -16 9 -5 9 32 27 48 23 5 -1 6 2 2
8 -3 6 1 17 9 26 16 16 22 54 9 54 -5 0 -16 -14 -25 -30 -9 -17 -24 -30 -32
-30 -8 0 -17 -6 -19 -12 -3 -7 -6 -8 -6 -2 -1 5 13 23 29 39 33 32 38 45 15
45 -9 0 -20 -11 -25 -25 -13 -35 -25 -31 -38 12 -9 30 -9 40 3 53 15 16 48
100 42 106 -2 2 -28 -12 -58 -31 -30 -19 -57 -35 -61 -35 -3 0 -9 13 -13 28
-5 27 -32 57 -94 107 -20 17 -23 17 -18 4z m-806 -141 c-3 -7 -5 -2 -5 12 0
14 2 19 5 13 2 -7 2 -19 0 -25z m732 -64 c-20 -38 -31 -28 -11 10 9 19 19 30
21 24 2 -5 -2 -21 -10 -34z m-729 -11 c0 -7 -4 -13 -10 -13 -5 0 -6 7 -3 17 4
11 3 14 -5 9 -8 -5 -10 -2 -5 9 5 13 7 14 14 3 5 -7 9 -19 9 -25z m977 -8
c-15 -16 -22 -11 -13 10 3 9 10 13 16 10 6 -4 5 -11 -3 -20z m-27 -27 c-1 -28
-2 -30 -11 -15 -6 10 -8 25 -5 33 9 24 16 16 16 -18z m-1013 -14 c-3 -3 -12
-4 -19 -1 -8 3 -5 6 6 6 11 1 17 -2 13 -5z m1359 -64 c8 0 14 -6 14 -14 0 -26
-21 -29 -46 -5 -27 25 -32 22 -61 -33 l-20 -37 -40 27 c-33 22 -38 31 -33 51
6 26 30 41 30 19 0 -10 3 -9 10 2 7 11 10 7 10 -18 0 -23 -4 -31 -12 -26 -7 4
-8 3 -4 -4 13 -21 34 -13 41 16 3 15 13 37 21 50 l15 23 30 -26 c17 -14 37
-25 45 -25z m-294 18 c-7 -7 -12 -8 -12 -2 0 14 12 26 19 19 2 -3 -1 -11 -7
-17z m-977 2 c-3 -5 -14 -10 -23 -9 -14 0 -13 2 3 9 27 11 27 11 20 0z m1485
-167 c0 -12 -50 -56 -50 -45 0 21 12 42 21 36 5 -3 9 0 9 5 0 6 5 11 10 11 6
0 10 -3 10 -7z m-84 -96 c9 -16 13 -32 10 -35 -10 -9 -75 59 -70 73 3 7 1 16
-5 20 -6 3 -11 14 -11 23 1 20 52 -35 76 -81z m31 6 c9 -13 11 -23 6 -23 -12
0 -33 45 -32 68 1 13 2 13 6 -3 3 -10 12 -29 20 -42z m40 11 c-3 -3 -12 -4
-19 -1 -8 3 -5 6 6 6 11 1 17 -2 13 -5z m41 -184 c7 -11 11 -20 9 -20 -2 0
-12 9 -22 20 -10 11 -14 20 -9 20 5 0 15 -9 22 -20z m-1232 -241 c19 -22 19
-22 -3 -8 -18 11 -26 11 -49 -1 -14 -8 -30 -23 -34 -34 -5 -15 -9 -16 -15 -6
-5 9 2 23 24 42 38 34 52 35 77 7z m4 -33 l24 -14 -38 -16 c-21 -9 -47 -16
-58 -16 -19 0 -19 1 2 30 24 33 34 36 70 16z m-317 -383 c-7 -2 -19 -2 -25 0
-7 3 -2 5 12 5 14 0 19 -2 13 -5z m17 -209 c0 -4 -7 -4 -15 0 -20 7 -20 -32 0
-61 11 -16 12 -24 4 -29 -7 -4 -9 -3 -5 4 3 5 2 12 -3 14 -5 1 -16 27 -24 55
l-16 53 30 -15 c16 -9 29 -18 29 -21z m-748 -68 c5 -25 -14 -42 -33 -30 -5 3
-9 -3 -10 -13 0 -15 -2 -14 -9 3 -5 12 -14 25 -21 29 -8 5 0 12 22 20 47 17
46 18 51 -9z m-19 -368 c6 -22 5 -22 -8 -4 -17 22 -20 40 -6 32 5 -3 11 -16
14 -28z m1849 -153 c3 -14 1 -25 -3 -25 -5 0 -9 11 -9 25 0 14 2 25 4 25 2 0
6 -11 8 -25z m-667 -464 c-5 -25 -4 -25 9 3 8 17 16 24 20 18 4 -6 -7 -26 -24
-43 -16 -18 -30 -38 -30 -45 0 -26 -18 -14 -25 16 -11 50 -25 44 -27 -12 l-1
-53 -6 65 c-8 74 -3 81 51 78 34 -2 37 -4 33 -27z m-1442 4 c-3 -9 -8 -14 -10
-11 -3 3 -2 9 2 15 9 16 15 13 8 -4z m97 -35 c0 -5 -5 -10 -11 -10 -5 0 -7 5
-4 10 3 6 8 10 11 10 2 0 4 -4 4 -10z m580 -166 c0 -36 -4 -63 -8 -60 -5 3 -6
-8 -4 -24 6 -43 -7 -102 -21 -97 -18 6 -20 74 -4 116 9 20 18 58 22 84 4 26 9
47 11 47 2 0 4 -30 4 -66z m-85 -34 c-3 -5 -12 -10 -18 -10 -7 0 -6 4 3 10 19
12 23 12 15 0z m1305 -775 c0 -8 -4 -15 -10 -15 -5 0 -10 7 -10 15 0 8 5 15
10 15 6 0 10 -7 10 -15z m-510 -610 c14 -19 14 -19 -2 -6 -10 7 -18 18 -18 24
0 6 1 8 3 6 1 -2 9 -13 17 -24z m1144 -17 c9 -12 16 -27 16 -32 0 -6 -8 1 -17
14 -9 14 -22 28 -27 32 -8 5 -7 8 1 8 6 0 19 -10 27 -22z m-643 -74 c-9 -38
-9 -38 -10 -7 -1 33 10 74 16 57 2 -6 -1 -28 -6 -50z m-131 31 c7 -8 8 -15 2
-15 -5 0 -15 7 -22 15 -7 8 -8 15 -2 15 5 0 15 -7 22 -15z m687 -7 c-3 -8 -6
-5 -6 6 -1 11 2 17 5 13 3 -3 4 -12 1 -19z"/>
<path d="M7126 8312 c3 -20 18 -64 33 -96 25 -56 27 -58 44 -42 9 10 17 32 17
50 0 32 -6 41 -73 101 l-28 25 7 -38z"/>
<path d="M738 8243 c7 -3 16 -2 19 1 4 3 -2 6 -13 5 -11 0 -14 -3 -6 -6z"/>
<path d="M8835 8230 c3 -5 8 -10 11 -10 2 0 4 5 4 10 0 6 -5 10 -11 10 -5 0
-7 -4 -4 -10z"/>
<path d="M720 8219 c0 -5 5 -7 10 -4 6 3 10 8 10 11 0 2 -4 4 -10 4 -5 0 -10
-5 -10 -11z"/>
<path d="M560 8100 c0 -5 9 -10 19 -10 11 0 23 5 26 10 4 6 -5 10 -19 10 -14
0 -26 -4 -26 -10z"/>
<path d="M4559 8055 c-11 -10 -173 -64 -180 -59 -4 2 -11 0 -14 -6 -4 -6 -15
-8 -25 -5 -10 3 -21 1 -25 -5 -4 -7 -18 -9 -31 -6 -14 4 -33 2 -43 -4 -14 -7
-21 -6 -23 2 -3 7 -12 6 -30 -6 -18 -12 -27 -14 -30 -5 -3 8 -14 7 -38 -6 -23
-12 -35 -14 -38 -6 -2 7 -15 3 -35 -11 -17 -12 -27 -17 -23 -10 4 7 3 12 -3
12 -5 0 -13 -5 -16 -11 -4 -6 -13 -8 -21 -5 -7 3 -16 1 -19 -5 -4 -5 -11 -7
-16 -3 -6 3 -22 -4 -35 -17 -19 -18 -27 -21 -33 -10 -7 10 -9 9 -14 -3 -4 -9
-13 -16 -21 -16 -8 0 -17 -6 -19 -12 -4 -9 -6 -9 -6 1 -1 10 -8 8 -26 -9 -16
-15 -25 -19 -25 -10 0 9 -7 7 -22 -8 -13 -11 -30 -22 -38 -24 -8 -2 -21 -9
-28 -16 -8 -7 -17 -10 -21 -8 -4 3 -28 -15 -54 -39 -26 -24 -47 -38 -47 -32
-1 7 -7 1 -15 -13 -8 -14 -14 -20 -15 -15 0 6 -11 -3 -25 -19 -14 -16 -25 -25
-25 -20 0 5 -13 -6 -30 -24 -16 -18 -30 -31 -30 -27 0 3 -25 -19 -55 -50 -30
-31 -55 -61 -55 -66 0 -5 -4 -9 -8 -9 -36 0 -190 -285 -217 -402 -8 -37 -18
-74 -21 -82 -4 -11 0 -16 14 -16 12 0 24 -5 27 -10 11 -19 79 -47 127 -53 51
-7 208 8 217 20 3 5 12 8 19 9 37 3 43 5 38 13 -3 4 6 6 21 3 18 -3 24 -1 19
7 -7 10 13 16 38 12 5 -1 6 5 2 14 -4 12 -2 13 12 6 10 -5 24 -6 31 -2 11 7
11 10 0 14 -8 3 -2 6 14 6 15 1 27 6 27 11 0 6 7 10 15 10 26 0 66 23 54 31
-7 4 1 10 20 14 19 4 31 13 31 23 0 15 2 15 10 2 8 -13 10 -12 10 3 0 10 4 15
10 12 5 -3 18 -1 27 4 14 8 15 11 3 11 -8 1 3 10 24 21 30 16 36 23 25 30 -9
6 -10 9 -2 9 7 0 29 11 49 25 27 18 32 25 18 25 -13 1 -5 9 24 27 29 17 39 28
31 33 -8 5 -2 14 17 26 34 22 45 35 38 46 -3 5 5 12 18 17 13 6 17 10 9 10 -8
1 2 14 22 30 20 15 34 31 31 34 -8 8 19 47 33 47 7 0 13 4 13 10 0 5 -8 6 -17
3 -10 -4 -1 8 20 26 30 26 35 36 26 47 -9 11 -8 14 5 14 10 0 14 5 11 10 -3 6
1 10 9 10 8 0 18 4 21 10 4 6 -1 7 -12 3 -11 -4 -5 8 17 32 19 21 29 35 23 31
-22 -12 -14 4 17 37 16 18 25 34 19 35 -5 2 2 14 17 27 15 12 23 28 20 34 -4
6 -3 11 2 11 14 0 64 79 57 91 -4 5 -2 8 2 7 5 -2 27 14 49 34 21 20 50 46 64
57 14 11 22 20 19 21 -3 0 -8 -2 -10 -5z"/>
<path d="M450 7956 c0 -2 7 -6 15 -10 8 -3 15 -1 15 4 0 6 -7 10 -15 10 -8 0
-15 -2 -15 -4z"/>
<path d="M8707 7852 c4 -44 3 -46 -10 -23 -8 13 -25 30 -38 37 -26 15 -99 19
-99 6 0 -16 50 -56 105 -82 l54 -26 6 27 c7 30 -3 96 -15 104 -4 3 -6 -17 -3
-43z"/>
<path d="M9140 7850 c0 -5 5 -10 11 -10 5 0 7 5 4 10 -3 6 -8 10 -11 10 -2 0
-4 -4 -4 -10z"/>
<path d="M8946 7523 c14 -32 31 -84 38 -116 l12 -57 29 30 c34 35 40 89 15
135 -13 24 -83 65 -111 65 -5 0 3 -26 17 -57z"/>
<path d="M8915 7524 c-11 -50 -37 -118 -52 -136 -8 -9 -25 -19 -38 -22 -39
-10 -42 -57 -7 -109 34 -48 50 -64 72 -69 8 -2 22 -12 31 -22 16 -19 16 -18
23 17 10 52 -21 117 -69 147 -31 19 -34 24 -21 32 30 17 89 168 72 186 -3 2
-8 -9 -11 -24z"/>
<path d="M7548 7447 c-3 -33 -2 -36 11 -23 11 12 12 21 4 38 -9 21 -10 20 -15
-15z"/>
<path d="M7433 7413 c9 -2 25 -2 35 0 9 3 1 5 -18 5 -19 0 -27 -2 -17 -5z"/>
<path d="M7343 7403 c15 -2 37 -2 50 0 12 2 0 4 -28 4 -27 0 -38 -2 -22 -4z"/>
<path d="M7491 7406 c2 -2 15 -9 29 -16 23 -12 24 -12 11 3 -7 10 -20 17 -29
17 -8 0 -13 -2 -11 -4z"/>
<path d="M7641 7376 l-34 -35 22 -27 c11 -15 21 -22 21 -17 0 6 -7 16 -15 23
-8 7 -12 16 -9 21 3 5 17 -3 31 -17 l25 -25 27 24 c25 24 51 26 51 5 0 -6 -7
-7 -16 -4 -8 3 -13 2 -9 -3 3 -5 -1 -11 -7 -14 -10 -3 -8 -9 4 -23 21 -21 37
-12 18 11 -8 10 -9 15 -1 15 6 0 11 -4 11 -10 0 -5 7 -7 14 -4 13 5 13 2 3
-19 -6 -14 -15 -23 -19 -21 -5 3 -8 -5 -8 -17 0 -19 4 -16 29 17 31 43 30 54
-14 94 l-27 25 -25 -31 -25 -31 -25 25 c-13 13 -22 27 -18 30 3 3 13 -2 22
-10 15 -16 18 -15 36 9 17 21 18 26 6 34 -23 14 -34 11 -68 -25z m64 4 c-3 -5
-15 -10 -26 -10 -10 0 -19 5 -19 10 0 6 12 10 26 10 14 0 23 -4 19 -10z"/>
<path d="M9440 7370 c0 -5 5 -10 11 -10 5 0 7 5 4 10 -3 6 -8 10 -11 10 -2 0
-4 -4 -4 -10z"/>
<path d="M1230 7336 c0 -11 123 -95 131 -90 5 3 6 -2 3 -10 -7 -19 12 -22 20
-3 2 6 4 1 3 -12 -1 -14 6 -28 18 -35 11 -6 23 -15 26 -19 3 -5 8 -7 10 -5 3
1 20 -10 39 -26 19 -15 28 -25 20 -21 -8 5 -26 17 -39 29 -24 20 -24 20 -17 1
5 -16 3 -16 -15 5 l-20 25 12 -25 c7 -14 19 -31 28 -38 13 -11 13 -12 1 -7 -8
4 3 -9 25 -28 35 -31 37 -35 15 -30 -23 6 -24 5 -10 -13 8 -10 21 -23 28 -27
7 -5 10 -12 7 -18 -4 -5 -2 -9 4 -9 6 0 8 -6 5 -13 -2 -7 7 -26 21 -41 25 -27
25 -27 3 -21 l-23 6 24 -20 c13 -12 19 -21 15 -21 -5 0 -2 -6 6 -13 8 -7 22
-21 30 -32 15 -19 15 -19 -12 -2 -16 10 -28 13 -28 7 0 -5 11 -17 25 -26 14
-9 23 -20 20 -24 -3 -4 2 -10 10 -14 8 -3 15 -11 15 -17 0 -8 -6 -7 -17 2 -10
8 -6 -3 10 -23 29 -39 34 -54 16 -42 -6 3 -3 -5 6 -20 10 -14 22 -26 27 -26 6
0 8 -6 5 -14 -3 -7 2 -20 11 -29 38 -36 45 -49 32 -57 -9 -6 -8 -11 7 -19 11
-5 24 -7 28 -3 5 4 5 2 2 -4 -3 -6 3 -17 14 -24 24 -18 25 -31 2 -24 -10 3 -2
-8 17 -24 19 -17 39 -28 44 -25 5 4 6 1 2 -6 -5 -7 -15 -10 -25 -6 -9 3 8 -18
37 -48 29 -29 50 -56 46 -59 -3 -4 5 -12 17 -19 22 -11 22 -13 4 -19 -15 -5
-9 -11 33 -31 51 -24 71 -46 32 -36 -11 3 -20 3 -20 1 0 -5 63 -39 75 -39 6 0
10 -5 10 -10 0 -6 -4 -9 -10 -7 -5 2 -5 -2 2 -9 10 -10 15 -9 28 1 13 11 15
10 9 -3 -4 -11 1 -16 18 -19 13 -2 23 -10 23 -18 0 -19 52 -39 85 -34 17 3 14
0 -10 -9 l-34 -14 33 -11 c41 -15 44 -15 36 -2 -10 17 11 11 33 -9 28 -24 28
-34 0 -26 -17 4 -19 3 -8 -3 8 -5 26 -13 40 -16 19 -6 21 -5 10 3 -13 9 -13
11 1 11 9 0 19 -7 23 -15 3 -8 10 -15 16 -15 6 0 8 5 5 10 -7 11 -5 11 35 16
14 2 39 6 55 9 30 6 30 6 -5 -12 -38 -20 -44 -36 -14 -41 40 -7 50 -12 35 -21
-8 -5 7 -7 34 -3 38 4 46 2 40 -8 -6 -10 0 -11 31 -4 21 4 56 8 77 7 35 -1 37
0 19 12 -12 9 -40 13 -77 11 -31 -2 -71 0 -89 4 -22 6 -7 8 54 9 47 1 96 4
110 6 22 5 22 4 5 -4 -18 -9 -17 -10 8 -10 15 -1 27 4 27 10 0 7 10 9 25 6 14
-2 23 -2 21 1 -3 3 2 11 12 19 15 13 15 13 -5 4 -28 -14 -93 -14 -93 -1 0 6
15 10 34 10 19 0 37 4 40 8 2 4 -39 6 -92 4 -53 -2 -94 -2 -91 2 3 3 18 7 32
8 15 1 27 8 27 15 0 7 3 13 8 14 4 0 15 2 25 4 9 2 17 -1 17 -6 0 -5 -9 -9
-20 -9 -11 0 -20 -5 -20 -11 0 -6 7 -8 16 -5 9 3 28 7 42 7 17 1 21 3 10 6
-30 7 -20 23 15 25 99 5 130 3 134 -9 17 -44 43 30 43 124 0 34 -5 65 -11 68
-6 4 -8 20 -4 38 4 21 3 27 -3 19 -7 -11 -10 -11 -15 2 -4 9 -2 16 4 16 13 0
2 52 -12 61 -5 3 -7 13 -4 21 4 9 0 18 -10 22 -11 4 -14 12 -10 26 4 14 2 20
-7 18 -7 -2 -14 8 -17 22 -3 23 -4 24 -12 5 -8 -17 -9 -15 -6 8 3 17 -3 35
-14 49 l-19 21 0 -29 c0 -21 3 -25 9 -15 6 10 9 3 9 -22 0 -20 3 -41 8 -48 4
-8 3 -10 -4 -5 -7 4 -12 16 -12 27 0 11 -5 17 -10 14 -6 -4 -10 -3 -9 2 3 15
-13 92 -20 91 -21 -2 -29 4 -24 21 3 10 0 22 -6 25 -6 4 -11 18 -11 30 0 13
-9 34 -21 47 l-20 24 5 -28 c4 -15 8 -48 11 -75 l4 -47 -10 45 c-6 25 -15 62
-21 83 -5 22 -15 37 -23 37 -10 0 -15 11 -15 33 0 17 -7 40 -14 50 -12 16 -14
16 -20 2 -3 -9 -2 -13 4 -10 6 3 10 -3 10 -14 0 -10 1 -25 3 -33 2 -7 -1 -3
-7 10 -5 12 -13 22 -18 22 -4 0 -8 12 -8 28 0 26 -20 70 -20 45 0 -9 -7 -10
-22 -4 -13 5 -23 12 -23 17 0 5 -10 22 -22 38 l-23 29 -1 -39 -1 -39 -12 44
c-6 25 -18 47 -25 49 -10 3 -11 0 -2 -17 8 -14 8 -21 1 -21 -5 0 -10 7 -10 15
0 8 -4 15 -10 15 -5 0 -9 3 -9 8 4 22 -3 34 -15 29 -10 -4 -13 -1 -10 7 3 7
-4 24 -15 37 -11 13 -20 19 -21 12 0 -6 5 -15 10 -18 6 -3 10 -18 10 -33 l-1
-27 -12 23 c-7 12 -16 19 -21 15 -4 -4 -4 0 0 10 3 10 1 17 -5 17 -13 0 -15
-32 -2 -46 15 -15 25 -58 12 -50 -6 4 -11 16 -11 27 0 10 -4 19 -9 19 -11 0
-21 48 -10 52 4 2 -1 14 -12 28 -15 18 -18 19 -10 5 8 -17 6 -21 -10 -21 -11
0 -17 6 -15 12 3 7 -6 22 -20 35 -28 26 -28 28 -9 -35 16 -54 12 -76 -5 -30
-26 68 -43 95 -57 90 -8 -3 -26 6 -40 22 l-26 27 8 -25 c4 -14 10 -32 12 -40
3 -8 -4 -1 -15 15 -10 17 -31 39 -46 49 l-27 17 16 -31 c9 -18 14 -34 11 -37
-3 -3 -10 5 -15 19 -9 24 -41 57 -41 43 0 -4 -7 -2 -15 5 -12 10 -15 9 -15 -6
0 -16 -3 -16 -20 6 -11 14 -20 20 -20 13 0 -17 -40 -3 -53 18 -16 25 -31 24
-17 0 17 -32 11 -36 -17 -10 -14 13 -23 17 -19 9 4 -8 0 -6 -8 4 -11 14 -16
15 -16 6 0 -11 -3 -11 -12 -2 -17 17 -28 15 -22 -5 5 -16 4 -16 -8 -3 -7 8
-21 22 -32 30 -18 14 -19 13 -14 -23 2 -20 0 -37 -4 -37 -4 0 -8 11 -8 24 0
28 -15 43 -23 24 -4 -8 -8 -4 -12 10 -11 34 -25 26 -19 -10 l5 -33 -15 32
c-10 22 -21 31 -36 30 -12 -1 -19 -6 -15 -14 3 -11 0 -11 -15 -3 -11 6 -25 8
-30 5 -5 -3 -18 -1 -27 5 -16 10 -15 11 5 7 12 -3 22 -2 22 3 0 11 -49 22 -62
14 -5 -4 -13 -2 -17 3 -3 5 -35 19 -71 30 -36 12 -73 25 -82 28 -10 4 -18 4
-18 1z m490 -156 c0 -5 -2 -10 -4 -10 -3 0 -8 5 -11 10 -3 6 -1 10 4 10 6 0
11 -4 11 -10z m120 -28 c0 -15 -2 -15 -10 -2 -13 20 -13 33 0 25 6 -3 10 -14
10 -23z m-275 -30 c-8 -8 -25 10 -19 20 4 6 9 5 15 -3 4 -7 6 -15 4 -17z m359
12 c3 -8 2 -12 -4 -9 -6 3 -10 10 -10 16 0 14 7 11 14 -7z m-373 -41 c13 -16
12 -17 -3 -4 -10 7 -18 15 -18 17 0 8 8 3 21 -13z m579 -37 c0 -18 -17 8 -24
34 l-7 25 15 -25 c9 -14 15 -29 16 -34z m-479 17 c13 -16 12 -17 -3 -4 -10 7
-18 15 -18 17 0 8 8 3 21 -13z m389 -23 c0 -13 -1 -13 -10 0 -5 8 -10 22 -10
30 0 13 1 13 10 0 5 -8 10 -22 10 -30z m-475 -28 c-3 -3 -11 0 -18 7 -9 10 -8
11 6 5 10 -3 15 -9 12 -12z m158 0 c14 -15 15 -19 2 -19 -8 0 -12 4 -9 8 2 4
-4 12 -13 18 -10 6 -13 11 -7 11 6 0 18 -8 27 -18z m497 -13 c0 -6 -4 -7 -10
-4 -5 3 -10 11 -10 16 0 6 5 7 10 4 6 -3 10 -11 10 -16z m-420 -54 c13 -14 21
-25 18 -25 -2 0 -15 11 -28 25 -13 14 -21 25 -18 25 2 0 15 -11 28 -25z m523
-20 c-9 -16 -10 -16 -16 -1 -5 12 -3 15 5 10 8 -5 9 -1 4 12 -5 14 -4 16 4 7
8 -7 9 -17 3 -28z m-83 15 c0 -5 -2 -10 -4 -10 -3 0 -8 5 -11 10 -3 6 -1 10 4
10 6 0 11 -4 11 -10z m124 -89 c-7 -7 -12 3 -18 34 l-6 30 14 -30 c8 -16 12
-32 10 -34z m-111 34 c4 -8 1 -17 -5 -21 -7 -4 -8 -3 -4 4 4 7 2 12 -4 12 -6
0 -8 5 -5 10 8 14 12 13 18 -5z m189 -45 c4 -47 -7 -54 -16 -9 -5 27 -2 49 9
49 1 0 5 -18 7 -40z m-531 3 c13 -16 12 -17 -3 -4 -10 7 -18 15 -18 17 0 8 8
3 21 -13z m463 -19 c9 -24 2 -26 -12 -4 -7 11 -8 20 -3 20 5 0 12 -7 15 -16z
m111 -22 c-8 -9 -25 20 -18 31 3 5 10 2 15 -7 6 -10 7 -20 3 -24z m-820 10
c-3 -3 -11 0 -18 7 -9 10 -8 11 6 5 10 -3 15 -9 12 -12z m787 -64 c-7 -7 -12
-8 -12 -2 0 14 12 26 19 19 2 -3 -1 -11 -7 -17z m78 12 c0 -5 -2 -10 -4 -10
-3 0 -8 5 -11 10 -3 6 -1 10 4 10 6 0 11 -4 11 -10z m-876 -26 c3 -8 2 -12 -4
-9 -6 3 -10 10 -10 16 0 14 7 11 14 -7z m811 -19 c0 -30 -11 -33 -18 -5 -3 10
0 21 7 24 6 2 11 5 11 5 0 1 0 -10 0 -24z m109 -85 l5 -75 -13 70 c-11 62 -11
93 -1 83 2 -2 6 -37 9 -78z m20 65 c3 -8 1 -15 -4 -15 -6 0 -10 7 -10 15 0 8
2 15 4 15 2 0 6 -7 10 -15z m-50 -11 c3 -8 2 -12 -4 -9 -6 3 -10 10 -10 16 0
14 7 11 14 -7z m-874 -24 c0 -5 -2 -10 -4 -10 -3 0 -8 5 -11 10 -3 6 -1 10 4
10 6 0 11 -4 11 -10z m798 -35 c-3 -3 -9 2 -12 12 -6 14 -5 15 5 6 7 -7 10
-15 7 -18z m79 3 c-3 -8 -6 -5 -6 6 -1 11 2 17 5 13 3 -3 4 -12 1 -19z m-383
-24 c5 -14 4 -15 -9 -4 -17 14 -19 20 -6 20 5 0 12 -7 15 -16z m76 -74 c6 -11
8 -20 6 -20 -3 0 -10 9 -16 20 -6 11 -8 20 -6 20 3 0 10 -9 16 -20z m407 -32
c-2 -13 -4 -5 -4 17 -1 22 1 32 4 23 2 -10 2 -28 0 -40z m53 17 c0 -14 -2 -25
-4 -25 -2 0 -6 11 -8 25 -3 14 -1 25 3 25 5 0 9 -11 9 -25z m-802 -40 c3 -3
-4 -4 -16 -2 -12 2 -24 6 -28 10 -4 3 4 4 16 2 12 -2 25 -7 28 -10z m812 1 c0
-3 -4 -8 -10 -11 -5 -3 -10 -1 -10 4 0 6 5 11 10 11 6 0 10 -2 10 -4z m-882
-31 c-3 -3 -9 2 -12 12 -6 14 -5 15 5 6 7 -7 10 -15 7 -18z m527 -20 c6 -5 29
-23 53 -39 23 -16 42 -33 42 -38 0 -4 -29 14 -64 41 -35 27 -68 47 -72 43 -5
-4 -6 -3 -2 2 4 5 2 16 -4 25 -12 15 25 -11 47 -34z m-58 9 c-3 -3 -12 -4 -19
-1 -8 3 -5 6 6 6 11 1 17 -2 13 -5z m430 -29 c0 -8 -4 -12 -9 -9 -5 3 -6 10
-3 15 9 13 12 11 12 -6z m-837 -5 c0 -5 -2 -10 -4 -10 -3 0 -8 5 -11 10 -3 6
-1 10 4 10 6 0 11 -4 11 -10z m45 -8 c-3 -3 -11 0 -18 7 -9 10 -8 11 6 5 10
-3 15 -9 12 -12z m835 8 c0 -5 -2 -10 -4 -10 -3 0 -8 5 -11 10 -3 6 -1 10 4
10 6 0 11 -4 11 -10z m-895 -20 c17 -8 16 -8 -7 -7 -16 1 -28 5 -28 9 0 10 9
9 35 -2z m655 -97 c0 -7 -58 36 -66 49 -4 7 9 -1 29 -16 20 -16 37 -30 37 -33z
m-480 33 c0 -2 -7 -7 -16 -10 -8 -3 -12 -2 -9 4 6 10 25 14 25 6z m-50 -40 c0
-3 -4 -8 -10 -11 -5 -3 -10 -1 -10 4 0 6 5 11 10 11 6 0 10 -2 10 -4z m555 -6
c3 -5 1 -10 -4 -10 -6 0 -11 5 -11 10 0 6 2 10 4 10 3 0 8 -4 11 -10z m96 -82
c69 -57 149 -134 149 -142 0 -3 -7 -6 -16 -6 -8 0 -13 4 -10 9 9 13 -19 21
-75 21 -27 0 -49 4 -49 9 0 13 43 19 71 9 22 -7 23 -7 6 6 -12 9 -31 12 -51 9
-21 -3 -36 0 -44 9 -8 10 -28 13 -63 11 -29 -1 -49 0 -46 3 10 10 127 12 121
3 -6 -10 -5 -10 43 -12 l31 -2 -36 30 c-53 43 -107 95 -100 95 4 0 35 -23 69
-52z m-323 -15 c-10 -2 -26 -2 -35 0 -10 3 -2 5 17 5 19 0 27 -2 18 -5z m72
-18 c14 -19 14 -19 -2 -6 -10 7 -18 18 -18 24 0 6 1 8 3 6 1 -2 9 -13 17 -24z
m27 19 c-3 -3 -12 -4 -19 -1 -8 3 -5 6 6 6 11 1 17 -2 13 -5z m188 -14 l40 -7
-35 -1 c-19 -1 -46 6 -60 14 -16 10 -18 13 -5 8 11 -4 38 -10 60 -14z m-115
-5 c0 -1 -12 -2 -26 -2 -17 0 -22 2 -13 7 10 7 39 3 39 -5z m-65 -5 c3 -5 1
-10 -4 -10 -6 0 -11 5 -11 10 0 6 2 10 4 10 3 0 8 -4 11 -10z m-88 -36 c-3 -3
-12 -4 -19 -1 -8 3 -5 6 6 6 11 1 17 -2 13 -5z m113 -14 c0 -5 -8 -10 -17 -10
-15 0 -16 2 -3 10 19 12 20 12 20 0z m125 1 c3 -5 -8 -9 -25 -9 -16 1 -30 5
-30 10 0 11 47 10 55 -1z m30 -1 c3 -5 1 -10 -4 -10 -6 0 -11 5 -11 10 0 6 2
10 4 10 3 0 8 -4 11 -10z m-252 -17 c-7 -2 -21 -2 -30 0 -10 3 -4 5 12 5 17 0
24 -2 18 -5z m277 -7 c-9 -8 -119 -15 -124 -8 -2 4 26 8 62 10 36 1 64 1 62
-2z m-260 -10 c0 -3 -4 -8 -10 -11 -5 -3 -10 -1 -10 4 0 6 5 11 10 11 6 0 10
-2 10 -4z m335 -16 c-51 -11 -142 -12 -105 -1 14 4 52 8 85 8 57 1 58 1 20 -7z
m-305 -10 c0 -5 -5 -10 -11 -10 -5 0 -7 5 -4 10 3 6 8 10 11 10 2 0 4 -4 4
-10z m50 0 c0 -5 -10 -10 -22 -9 -22 0 -22 1 -3 9 11 5 21 9 23 9 1 1 2 -3 2
-9z m30 0 c0 -5 -5 -10 -11 -10 -5 0 -7 5 -4 10 3 6 8 10 11 10 2 0 4 -4 4
-10z m30 0 c0 -5 -5 -10 -11 -10 -5 0 -7 5 -4 10 3 6 8 10 11 10 2 0 4 -4 4
-10z m60 0 c0 -5 -2 -10 -4 -10 -3 0 -8 5 -11 10 -3 6 -1 10 4 10 6 0 11 -4
11 -10z m-280 -45 c14 -19 14 -19 -2 -6 -10 7 -18 18 -18 24 0 6 1 8 3 6 1 -2
9 -13 17 -24z m280 15 c-19 -13 -30 -13 -30 0 0 6 10 10 23 10 18 0 19 -2 7
-10z m-100 -24 c12 -23 16 -24 86 -20 46 3 74 1 74 -6 0 -5 -19 -10 -42 -11
-24 0 -70 -2 -103 -4 -48 -2 -56 -1 -37 8 27 12 24 28 -9 44 -22 12 -22 13 -3
13 12 0 26 -10 34 -24z m60 20 c0 -2 -7 -7 -16 -10 -8 -3 -12 -2 -9 4 6 10 25
14 25 6z m-176 -21 c-10 -8 -23 -15 -28 -15 -6 0 -1 7 10 15 10 8 23 15 28 15
6 0 1 -7 -10 -15z"/>
<path d="M7199 7321 c-19 -11 -41 -26 -48 -34 -10 -12 -6 -17 20 -26 39 -13
99 -5 161 24 l47 22 -26 12 c-49 22 -115 23 -154 2z"/>
<path d="M6967 7313 c-4 -3 -7 -11 -7 -17 0 -6 5 -5 12 2 6 6 9 14 7 17 -3 3
-9 2 -12 -2z"/>
<path d="M6917 7296 c-3 -8 1 -17 9 -20 9 -4 14 1 14 14 0 23 -15 27 -23 6z"/>
<path d="M7810 7270 c-8 -5 -12 -11 -9 -14 2 -3 11 -1 19 4 8 5 12 11 9 14 -2
3 -11 1 -19 -4z"/>
<path d="M6945 7240 c-4 -6 -15 -10 -25 -10 -37 0 -39 -90 -3 -104 9 -4 19 -2
23 4 9 15 0 60 -11 60 -22 0 -6 19 21 25 17 4 30 10 30 15 0 12 -29 20 -35 10z"/>
<path d="M6068 7172 c15 -15 33 -37 40 -47 11 -17 11 -16 1 5 -13 28 -49 70
-60 70 -4 0 5 -13 19 -28z"/>
<path d="M7010 7104 c34 -7 108 -8 103 -1 -2 4 -30 6 -61 6 -31 -1 -50 -3 -42
-5z"/>
<path d="M6050 7023 c-31 -11 -50 -37 -51 -67 0 -30 -1 -29 -24 19 -22 46 -23
48 -24 20 0 -16 6 -48 14 -70 8 -21 13 -40 11 -42 -1 -1 -18 13 -36 32 -19 19
-40 35 -47 35 -21 0 3 -39 51 -82 l41 -37 -54 15 c-95 27 -145 5 -190 -84
l-29 -58 52 7 c65 8 88 20 143 70 50 45 78 49 116 14 15 -14 27 -21 27 -15 0
5 -9 18 -20 27 -11 10 -20 21 -20 26 0 5 6 4 14 -2 11 -9 15 -7 20 11 4 17 8
19 14 10 6 -9 12 -6 22 12 7 14 16 23 20 21 4 -3 8 6 8 20 0 31 -16 22 -33
-19 l-13 -31 -11 28 c-19 50 -13 74 24 104 19 15 35 31 35 36 0 8 -37 8 -60 0z
m-133 -189 c-3 -3 -12 -4 -19 -1 -8 3 -5 6 6 6 11 1 17 -2 13 -5z"/>
<path d="M9795 6980 l-40 -7 43 -2 c23 0 42 4 42 9 0 6 -1 9 -2 9 -2 -1 -21
-5 -43 -9z"/>
<path d="M4390 6880 c23 -7 23 -8 3 -9 -12 -1 -24 -5 -27 -10 -7 -10 -46 -3
-46 8 0 13 -252 4 -260 -9 -6 -9 -9 -9 -12 1 -5 14 -4 15 -72 -20 -5 -2 -6 1
-2 7 10 16 0 15 -29 -4 -15 -10 -25 -12 -25 -5 0 6 -5 11 -11 11 -6 0 -9 -9
-6 -20 3 -11 0 -23 -5 -27 -7 -3 -8 -1 -4 6 4 6 0 14 -9 18 -10 3 -21 0 -26
-8 -7 -12 -9 -12 -9 0 0 11 -4 10 -20 -4 -10 -9 -26 -15 -35 -12 -8 4 -15 2
-15 -3 0 -6 -7 -10 -15 -10 -9 0 -18 -7 -21 -15 -4 -8 -10 -12 -15 -9 -5 3 -7
10 -4 15 4 5 2 9 -3 9 -6 0 -13 -7 -16 -16 -4 -9 -13 -14 -21 -10 -8 3 -15 1
-15 -4 0 -6 -6 -10 -14 -10 -7 0 -21 -10 -30 -22 -9 -13 -14 -16 -11 -8 4 8
-1 6 -9 -4 -12 -15 -16 -16 -16 -5 -1 11 -3 11 -13 -2 -7 -9 -18 -14 -24 -12
-7 3 -13 0 -13 -7 0 -6 -5 -8 -10 -5 -6 3 -13 -1 -16 -10 -4 -9 -13 -14 -20
-11 -8 3 -14 -1 -14 -10 0 -8 -5 -12 -10 -9 -6 3 -13 -1 -16 -9 -3 -9 -10 -13
-15 -10 -5 3 -9 -7 -10 -23 l-1 -28 -8 25 c-4 14 -8 19 -9 13 -1 -16 -32 -48
-60 -63 -12 -6 -21 -17 -21 -25 0 -18 -20 -20 -20 -2 -1 6 -10 -7 -21 -30 -11
-22 -29 -43 -39 -46 -10 -3 -21 -18 -25 -38 -7 -30 -9 -31 -16 -14 -7 19 -8
19 -8 -3 -1 -13 -5 -21 -10 -18 -9 6 -31 -36 -31 -60 0 -8 -4 -12 -10 -9 -6 4
-7 -1 -3 -11 4 -11 2 -15 -4 -11 -10 7 -28 -19 -25 -35 1 -5 -3 -8 -9 -8 -5 0
-7 -4 -4 -10 3 -5 1 -10 -5 -10 -6 0 -8 -4 -5 -10 3 -5 1 -10 -5 -10 -6 0 -8
-5 -4 -12 5 -8 2 -9 -9 -5 -9 3 -19 1 -23 -5 -4 -7 -3 -8 4 -4 7 4 12 3 12 -3
0 -5 -8 -15 -17 -20 -16 -9 -16 -12 -3 -21 13 -8 13 -10 -2 -10 -10 0 -18 -4
-18 -10 0 -5 5 -10 11 -10 5 0 7 -5 4 -10 -4 -6 -10 -8 -14 -6 -4 3 -8 0 -8
-7 0 -7 -4 -20 -8 -29 -4 -10 -3 -18 3 -18 14 0 3 -40 -12 -41 -6 -1 9 -7 33
-15 48 -15 69 -11 30 6 -17 7 -18 9 -4 6 23 -5 127 -48 135 -56 7 -7 90 -6 90
1 0 3 -39 15 -87 27 -104 26 -124 41 -97 70 14 14 25 17 39 11 17 -6 17 -8 3
-8 -10 -1 -18 -5 -18 -11 0 -5 8 -10 18 -11 11 0 12 -2 4 -6 -7 -3 -19 1 -27
7 -10 8 -15 9 -15 2 0 -12 12 -16 85 -32 28 -6 59 -13 70 -16 l20 -6 -20 16
c-11 8 -29 16 -41 16 -11 0 -29 7 -40 16 -10 8 -13 12 -6 9 49 -25 212 -45
212 -26 0 4 -24 9 -52 9 -59 1 -135 20 -88 21 14 1 41 -3 60 -9 30 -9 37 -7
60 15 l26 25 54 -20 c65 -24 60 -23 60 -6 0 9 -15 17 -40 21 -22 4 -40 10 -40
15 0 12 82 -7 91 -21 6 -10 9 -11 9 -1 0 8 17 12 48 13 l47 1 -52 10 c-29 5
-53 14 -53 19 0 6 9 7 23 3 12 -4 38 -8 57 -9 19 0 40 -3 45 -7 6 -3 19 -2 30
2 15 6 9 9 -27 15 -27 4 -48 12 -48 17 0 6 10 7 23 4 12 -4 42 -10 65 -13 31
-4 40 -8 30 -15 -9 -7 -8 -8 5 -4 10 3 22 6 27 6 4 0 10 7 14 15 4 12 2 13
-12 7 -10 -6 -26 -4 -41 4 -23 12 -23 12 -3 23 12 7 30 8 44 3 13 -5 37 -5 53
-1 l30 7 -27 1 c-41 2 -34 21 8 21 25 0 33 4 28 13 -6 10 -4 10 7 0 7 -7 17
-13 22 -13 16 0 -5 21 -36 35 l-32 15 50 -5 50 -4 -40 25 -40 25 33 -6 c18 -4
48 -8 66 -9 29 -3 33 0 28 16 -2 11 -8 15 -11 10 -4 -7 -15 -5 -31 4 l-25 15
24 -5 c31 -6 74 11 65 26 -4 6 -3 8 3 5 6 -4 13 0 17 8 3 8 16 16 28 16 19 1
20 2 4 6 -15 4 -16 7 -5 14 11 7 11 9 -3 9 -9 0 -19 4 -22 8 -3 5 9 7 27 4 24
-2 28 -1 17 7 -8 5 -18 7 -24 4 -5 -3 -6 -1 -2 5 3 5 0 13 -6 15 -8 3 -6 6 5
6 9 1 17 -5 17 -11 0 -7 12 -1 25 15 13 15 28 27 34 27 5 0 7 10 3 22 -4 16
-2 19 8 13 8 -5 11 -4 6 3 -3 6 2 16 11 22 16 11 16 11 -2 6 -19 -6 -19 -5 -2
8 9 7 17 18 17 24 0 6 -8 16 -17 21 -10 6 -13 11 -7 11 5 0 15 -5 22 -12 9 -9
12 -8 12 4 0 9 4 18 9 20 5 2 11 10 13 18 2 10 -9 17 -32 21 l-35 7 41 -1 c27
0 48 5 59 16 12 12 13 17 3 17 -7 0 1 14 19 29 17 16 29 32 26 35 -3 3 2 8 11
12 9 3 16 15 16 26 0 12 -5 17 -12 13 -7 -4 -2 3 12 15 15 13 26 17 28 10 5
-15 32 7 32 27 0 7 6 13 13 12 6 -1 37 10 67 24 l55 26 -50 -1 c-40 0 -45 -2
-25 -8z m-180 -162 c25 2 25 2 2 -8 -24 -10 -52 -4 -52 12 0 5 6 6 13 1 6 -4
23 -6 37 -5z m-125 -208 c-3 -5 -12 -10 -18 -10 -7 0 -6 4 3 10 19 12 23 12
15 0z m-770 -9 c3 -5 2 -12 -3 -15 -5 -3 -9 1 -9 9 0 17 3 19 12 6z m745 -62
c0 -5 -9 -9 -19 -9 -11 0 -22 4 -25 9 -3 5 6 9 19 9 14 0 25 -4 25 -9z m-93
-55 c-3 -3 -12 -4 -19 -1 -8 3 -5 6 6 6 11 1 17 -2 13 -5z m-60 -20 c-3 -3
-12 -4 -19 -1 -8 3 -5 6 6 6 11 1 17 -2 13 -5z m80 -20 c-3 -3 -12 -4 -19 -1
-8 3 -5 6 6 6 11 1 17 -2 13 -5z m-744 -29 c-3 -9 -8 -14 -10 -11 -3 3 -2 9 2
15 9 16 15 13 8 -4z m644 9 c-3 -3 -12 -4 -19 -1 -8 3 -5 6 6 6 11 1 17 -2 13
-5z m63 -14 c0 -12 -8 -12 -35 0 -18 8 -17 9 8 9 15 1 27 -3 27 -9z m-130 -14
c0 -3 -4 -8 -10 -11 -5 -3 -10 -1 -10 4 0 6 5 11 10 11 6 0 10 -2 10 -4z m43
-13 c-7 -2 -19 -2 -25 0 -7 3 -2 5 12 5 14 0 19 -2 13 -5z m-43 -33 c0 -6 -11
-8 -27 -4 -40 10 -41 14 -5 14 18 0 32 -5 32 -10z m-34 -38 c-10 -2 -22 0 -28
6 -6 6 0 7 19 4 21 -5 23 -7 9 -10z m30 -40 c-10 -2 -22 0 -28 6 -6 6 0 7 19
4 21 -5 23 -7 9 -10z m-139 -8 c-3 -3 -12 -4 -19 -1 -8 3 -5 6 6 6 11 1 17 -2
13 -5z m93 -6 c0 -11 -22 -10 -39 1 -10 7 -7 9 12 8 15 -1 27 -5 27 -9z m-90
-35 c0 -6 -9 -9 -20 -6 -30 8 -33 21 -5 19 14 0 25 -6 25 -13z m-103 -19 c-3
-3 -12 -4 -19 -1 -8 3 -5 6 6 6 11 1 17 -2 13 -5z m-94 -14 c15 0 27 -4 27 -8
0 -10 -87 1 -98 13 -4 4 4 5 18 2 14 -4 37 -7 53 -7z m-283 -20 c11 -11 16
-20 11 -20 -6 0 -13 5 -17 11 -3 6 -17 8 -31 4 -21 -5 -23 -4 -11 9 17 20 24
20 48 -4z m170 -10 c0 -5 -2 -10 -4 -10 -3 0 -8 5 -11 10 -3 6 -1 10 4 10 6 0
11 -4 11 -10z m-15 -28 c-7 -7 -75 8 -75 17 0 5 18 3 40 -2 22 -6 37 -13 35
-15z m-151 3 c11 -8 16 -15 10 -15 -5 0 -18 7 -28 15 -11 8 -16 15 -10 15 5 0
18 -7 28 -15z"/>
<path d="M4330 6876 c0 -2 7 -7 16 -10 8 -3 12 -2 9 4 -6 10 -25 14 -25 6z"/>
<path d="M6100 6819 c0 -18 -2 -19 -15 -9 -9 7 -18 10 -21 7 -10 -10 6 -27 27
-27 14 0 19 7 19 25 0 14 -2 25 -5 25 -3 0 -5 -10 -5 -21z"/>
<path d="M4275 6780 c3 -5 8 -10 11 -10 2 0 4 5 4 10 0 6 -5 10 -11 10 -5 0
-7 -4 -4 -10z"/>
<path d="M2580 6756 c0 -9 5 -16 10 -16 6 0 10 4 10 9 0 6 -4 13 -10 16 -5 3
-10 -1 -10 -9z"/>
<path d="M5941 6743 c-17 -16 -42 -56 -55 -90 l-24 -63 41 22 c23 11 64 39 90
61 38 32 47 45 45 66 -5 39 -56 42 -97 4z"/>
<path d="M2610 6741 c0 -6 4 -13 10 -16 6 -3 7 1 4 9 -7 18 -14 21 -14 7z"/>
<path d="M10000 6669 c0 -5 5 -7 10 -4 6 3 10 8 10 11 0 2 -4 4 -10 4 -5 0
-10 -5 -10 -11z"/>
<path d="M2692 6605 c0 -16 2 -22 5 -12 2 9 2 23 0 30 -3 6 -5 -1 -5 -18z"/>
<path d="M6034 6606 c-29 -22 -13 -26 21 -5 17 11 23 19 14 19 -8 0 -24 -6
-35 -14z"/>
<path d="M6048 6543 c7 -3 16 -2 19 1 4 3 -2 6 -13 5 -11 0 -14 -3 -6 -6z"/>
<path d="M6061 6483 c12 -14 12 -16 0 -8 -10 5 -12 4 -7 -3 4 -7 22 -12 39
-11 30 0 31 1 10 11 -13 6 -23 15 -23 20 0 4 -7 8 -16 8 -14 0 -15 -2 -3 -17z"/>
<path d="M528 6483 c26 -4 32 -9 32 -29 0 -16 -6 -24 -17 -25 -14 0 -15 -2 -3
-6 8 -3 19 -12 23 -19 4 -8 13 -14 19 -14 6 0 8 3 5 7 -4 3 -1 13 5 21 7 8 13
19 14 26 1 6 5 18 8 26 5 12 -5 15 -56 16 -35 0 -48 -1 -30 -3z"/>
<path d="M5568 6437 c17 -30 38 -67 47 -81 20 -30 78 -62 83 -46 2 5 8 8 12 5
5 -3 3 15 -5 41 -21 70 -57 102 -144 129 -23 7 -23 7 7 -48z"/>
<path d="M7076 6476 c21 -15 30 -14 19 3 -3 6 -14 11 -23 11 -13 0 -13 -2 4
-14z"/>
<path d="M7150 6464 c-7 -19 -6 -40 4 -75 9 -30 11 -51 5 -54 -11 -7 -2 -25
12 -25 5 0 9 6 9 13 0 19 45 41 69 34 12 -3 21 -1 21 4 0 18 -29 21 -60 6 -36
-18 -41 -4 -12 34 10 13 22 33 25 44 6 16 3 15 -13 -5 -11 -14 -20 -20 -21
-15 -1 6 -5 -3 -9 -20 -7 -28 -8 -27 -10 15 -2 25 -3 51 -3 58 1 20 -7 14 -17
-14z"/>
<path d="M7180 6473 c0 -4 5 -15 10 -23 8 -13 10 -13 10 2 0 9 -4 20 -10 23
-5 3 -10 3 -10 -2z"/>
<path d="M7015 6460 c3 -5 18 -10 33 -10 21 0 24 2 12 10 -20 13 -53 13 -45 0z"/>
<path d="M7100 6441 c0 -6 4 -13 10 -16 6 -3 7 1 4 9 -7 18 -14 21 -14 7z"/>
<path d="M7670 6408 c0 -18 -9 -29 -33 -40 -23 -11 -33 -23 -35 -41 -1 -23 1
-25 21 -18 12 5 52 12 90 15 37 4 65 11 62 16 -3 4 -28 27 -55 50 -48 40 -50
41 -50 18z"/>
<path d="M7055 6400 c3 -5 15 -10 25 -10 10 0 22 5 25 10 4 6 -7 10 -25 10
-18 0 -29 -4 -25 -10z"/>
<path d="M403 6385 c-3 -9 -3 -19 1 -22 7 -7 36 16 36 28 0 15 -30 10 -37 -6z"/>
<path d="M4058 6393 c7 -3 16 -2 19 1 4 3 -2 6 -13 5 -11 0 -14 -3 -6 -6z"/>
<path d="M9550 6323 c0 -35 -6 -55 -19 -70 -19 -20 -19 -21 5 -57 30 -44 58
-56 125 -56 53 0 119 -22 119 -39 0 -25 41 -51 79 -51 22 0 41 -5 44 -12 7
-21 -18 -60 -68 -107 -60 -57 -95 -126 -95 -189 0 -43 4 -53 48 -100 30 -32
57 -52 70 -52 30 0 28 -28 -4 -75 -20 -30 -23 -40 -12 -46 15 -9 81 -18 188
-23 41 -3 79 -5 83 -5 4 -1 3 -10 -3 -20 -5 -11 -10 -29 -10 -41 0 -17 4 -20
18 -15 15 7 34 11 65 14 4 1 7 8 7 16 0 8 7 15 15 15 31 0 35 39 35 342 l0
304 -39 30 c-31 23 -37 32 -28 43 9 11 7 17 -11 29 -12 8 -22 21 -22 29 0 49
-94 116 -195 138 -33 7 -68 16 -78 20 -15 6 -17 4 -11 -19 5 -23 3 -26 -17
-26 -13 0 -51 14 -84 32 -46 24 -76 32 -132 36 l-73 5 0 -50z"/>
<path d="M1865 6310 c3 -5 11 -10 16 -10 6 0 7 5 4 10 -3 6 -11 10 -16 10 -6
0 -7 -4 -4 -10z"/>
<path d="M5696 6245 c8 -37 14 -45 14 -19 0 10 -5 26 -10 34 -8 11 -9 7 -4
-15z"/>
<path d="M337 6253 c-7 -12 11 -53 23 -53 5 0 10 14 10 30 0 28 -21 42 -33 23z"/>
<path d="M5638 6243 c7 -3 16 -2 19 1 4 3 -2 6 -13 5 -11 0 -14 -3 -6 -6z"/>
<path d="M5720 6231 c0 -6 5 -13 10 -16 6 -3 10 1 10 9 0 9 -4 16 -10 16 -5 0
-10 -4 -10 -9z"/>
<path d="M427 6193 c-21 -2 -41 -11 -44 -19 -3 -8 -11 -14 -17 -14 -13 0 -36
-82 -36 -129 0 -32 41 -97 58 -93 7 1 11 -1 10 -5 -3 -10 50 -63 62 -63 6 0
10 7 10 15 0 8 6 12 14 9 17 -7 33 16 17 25 -7 5 0 17 19 36 26 24 33 27 40
15 5 -8 12 -11 16 -7 4 4 2 13 -4 19 -7 7 -12 20 -12 29 0 9 -7 30 -15 45 -13
26 -13 30 0 40 8 6 15 15 15 19 0 16 -32 44 -44 39 -7 -3 -18 7 -24 21 -6 14
-15 24 -19 23 -5 -1 -25 -3 -46 -5z m88 -83 c3 -5 -3 -10 -14 -10 -12 0 -21 5
-21 10 0 6 6 10 14 10 8 0 18 -4 21 -10z m20 -100 c3 -5 -1 -10 -10 -10 -9 0
-13 5 -10 10 3 6 8 10 10 10 2 0 7 -4 10 -10z m-138 -52 c-3 -8 -6 -5 -6 6 -1
11 2 17 5 13 3 -3 4 -12 1 -19z m83 -13 c0 -8 -4 -15 -10 -15 -5 0 -10 7 -10
15 0 8 5 15 10 15 6 0 10 -7 10 -15z"/>
<path d="M5684 6188 c-5 -8 -2 -9 9 -5 10 4 28 2 42 -3 19 -7 23 -6 18 5 -6
18 -59 20 -69 3z"/>
<path d="M8095 6184 c-35 -18 -65 -44 -65 -56 0 -4 13 -8 29 -8 30 0 75 29 91
61 9 15 7 19 -7 19 -10 0 -31 -7 -48 -16z"/>
<path d="M5731 6142 c-18 -33 -13 -52 12 -51 16 1 18 2 5 6 -10 2 -18 8 -18
13 0 5 8 13 18 19 13 7 14 13 5 21 -8 9 -14 7 -22 -8z"/>
<path d="M3725 6120 c-3 -5 -1 -10 4 -10 6 0 11 5 11 10 0 6 -2 10 -4 10 -3 0
-8 -4 -11 -10z"/>
<path d="M5580 6123 c0 -6 8 -17 18 -24 16 -13 16 -13 2 6 -8 11 -16 22 -17
24 -2 2 -3 0 -3 -6z"/>
<path d="M7998 6070 c-3 -30 -7 -62 -9 -70 -3 -11 4 -14 31 -12 l35 2 -37 -22
c-22 -14 -38 -31 -38 -42 0 -16 3 -16 25 8 13 14 36 31 50 36 30 11 33 30 6
30 -30 0 -37 21 -12 41 l22 18 -28 3 c-22 2 -29 9 -34 33 -4 25 -6 20 -11 -25z"/>
<path d="M5600 6060 c10 -7 11 -10 3 -11 -27 -3 -32 -4 -37 -10 -3 -3 9 -5 27
-6 29 0 46 11 47 30 0 4 -12 7 -27 7 -22 0 -25 -2 -13 -10z"/>
<path d="M3688 6053 c7 -3 16 -2 19 1 4 3 -2 6 -13 5 -11 0 -14 -3 -6 -6z"/>
<path d="M2723 6032 c-42 -6 -23 -20 20 -15 23 3 43 7 45 8 6 5 -44 10 -65 7z"/>
<path d="M3570 6036 c0 -2 9 -6 20 -9 11 -3 18 -1 14 4 -5 9 -34 13 -34 5z"/>
<path d="M3376 6021 c-3 -5 11 -12 32 -15 20 -4 46 -9 57 -11 11 -3 2 4 -20
15 -44 22 -61 24 -69 11z"/>
<path d="M3540 6013 c8 -3 21 -10 28 -16 7 -5 15 -7 19 -3 10 9 0 15 -33 20
-16 2 -22 1 -14 -1z"/>
<path d="M2848 5998 c12 -6 22 -15 22 -20 0 -4 6 -8 13 -8 6 1 1 10 -12 20
-13 11 -28 20 -35 19 -6 0 -1 -5 12 -11z"/>
<path d="M5696 5985 c5 -12 4 -16 -4 -11 -6 4 -26 -1 -44 -11 l-33 -18 45 -3
c25 -2 52 -10 60 -17 17 -15 36 -8 35 14 0 7 -15 25 -33 39 -26 20 -31 21 -26
7z m39 -33 c-3 -3 -11 0 -18 7 -9 10 -8 11 6 5 10 -3 15 -9 12 -12z"/>
<path d="M3530 5980 c0 -6 7 -10 15 -10 8 0 15 2 15 4 0 2 -7 6 -15 10 -8 3
-15 1 -15 -4z"/>
<path d="M3408 5973 c7 -3 16 -2 19 1 4 3 -2 6 -13 5 -11 0 -14 -3 -6 -6z"/>
<path d="M2365 5953 c2 -10 4 -22 4 -26 1 -5 5 -6 10 -3 12 8 7 39 -7 44 -6 2
-9 -5 -7 -15z"/>
<path d="M3290 5960 c0 -5 5 -10 10 -10 6 0 10 5 10 10 0 6 -4 10 -10 10 -5 0
-10 -4 -10 -10z"/>
<path d="M3330 5960 c0 -5 5 -10 11 -10 5 0 7 5 4 10 -3 6 -8 10 -11 10 -2 0
-4 -4 -4 -10z"/>
<path d="M3458 5963 c7 -3 16 -2 19 1 4 3 -2 6 -13 5 -11 0 -14 -3 -6 -6z"/>
<path d="M3365 5950 c-3 -5 1 -10 9 -10 9 0 16 5 16 10 0 6 -4 10 -9 10 -6 0
-13 -4 -16 -10z"/>
<path d="M3081 5947 c2 -1 13 -9 24 -17 19 -14 19 -14 6 3 -7 9 -18 17 -24 17
-6 0 -8 -1 -6 -3z"/>
<path d="M3145 5920 c-3 -5 -2 -10 4 -10 5 0 13 5 16 10 3 6 2 10 -4 10 -5 0
-13 -4 -16 -10z"/>
<path d="M5675 5921 c23 -5 31 -13 36 -36 l7 -30 1 31 c1 34 -13 45 -52 43
-16 -1 -14 -3 8 -8z"/>
<path d="M3175 5910 c-3 -5 -1 -10 4 -10 6 0 11 5 11 10 0 6 -2 10 -4 10 -3 0
-8 -4 -11 -10z"/>
<path d="M3357 5909 c7 -7 15 -10 18 -7 3 3 -2 9 -12 12 -14 6 -15 5 -6 -5z"/>
<path d="M8016 5891 c-15 -17 -13 -18 31 -28 27 -6 50 -10 51 -8 8 7 -10 26
-37 40 -26 13 -30 13 -45 -4z"/>
<path d="M120 5855 c-14 -17 -18 -127 -5 -131 14 -5 35 44 35 84 0 18 4 31 8
28 4 -2 8 3 9 13 2 21 -31 25 -47 6z"/>
<path d="M7970 5856 c0 -7 17 -26 37 -42 36 -28 37 -23 1 29 -21 29 -38 35
-38 13z"/>
<path d="M5720 5843 c0 -5 10 -18 23 -29 l22 -19 -20 25 c-11 14 -21 27 -22
29 -2 2 -3 0 -3 -6z"/>
<path d="M5610 5829 c12 -8 10 -10 -10 -5 -22 4 -23 4 -7 -8 21 -16 23 -30 3
-23 -11 4 -13 1 -9 -10 4 -10 2 -14 -4 -10 -7 4 -10 0 -9 -10 2 -10 11 -19 22
-20 19 -3 19 -3 0 5 -16 7 -12 12 29 31 26 12 50 20 53 17 2 -3 -3 -8 -12 -12
-9 -3 -16 -11 -16 -18 1 -16 50 42 50 60 0 10 -13 14 -52 14 -41 0 -49 -3 -38
-11z"/>
<path d="M5545 5781 c-3 -5 -2 -12 3 -15 5 -3 9 1 9 9 0 17 -3 19 -12 6z"/>
<path d="M6317 5740 c20 -17 106 -41 138 -38 29 2 20 7 -55 24 -50 12 -87 18
-83 14z"/>
<path d="M6388 5659 c-18 -18 -26 -26 -17 -20 14 10 17 9 15 -6 -1 -14 8 -19
43 -21 47 -3 91 13 91 34 0 11 -67 44 -90 44 -5 0 -24 -14 -42 -31z"/>
<path d="M232 5622 c-24 -8 -41 -19 -39 -26 5 -16 43 -14 39 2 -1 8 2 11 7 7
6 -3 8 -12 4 -20 -6 -18 22 -21 33 -4 5 8 9 7 15 -3 9 -16 89 -24 89 -8 0 5
-11 10 -25 10 -30 0 -33 16 -4 25 12 4 17 10 13 15 -17 15 -89 16 -132 2z"/>
<path d="M54 5606 l-31 -9 4 -81 c4 -87 8 -106 21 -106 9 0 47 182 41 197 -2
4 -18 4 -35 -1z"/>
<path d="M358 5593 c6 -2 18 -2 25 0 6 3 1 5 -13 5 -14 0 -19 -2 -12 -5z"/>
<path d="M7220 5419 c0 -5 5 -7 10 -4 6 3 10 8 10 11 0 2 -4 4 -10 4 -5 0 -10
-5 -10 -11z"/>
<path d="M7300 5335 c0 -8 4 -15 10 -15 5 0 7 7 4 15 -4 8 -8 15 -10 15 -2 0
-4 -7 -4 -15z"/>
<path d="M9675 5300 c-3 -5 -1 -18 5 -29 5 -11 10 -32 10 -48 0 -15 9 -39 20
-53 11 -14 20 -33 20 -44 0 -28 57 -110 90 -130 40 -23 38 -48 -6 -81 -19 -15
-39 -36 -43 -48 -7 -18 -11 -15 -41 29 -19 27 -40 55 -48 63 -7 8 -18 25 -23
38 -4 12 -15 23 -23 23 -8 0 -17 6 -19 13 -4 9 -7 9 -15 -1 -5 -8 -18 -11 -34
-7 -18 5 -27 2 -31 -9 -10 -25 -36 -19 -47 10 -13 34 -14 33 15 44 14 5 25 14
25 20 0 8 -6 8 -20 0 -15 -8 -21 -6 -30 10 -18 34 -9 65 21 68 22 3 29 -2 37
-27 14 -39 20 -40 14 -2 -2 16 -23 51 -46 77 -40 44 -44 47 -72 37 -16 -6 -38
-7 -49 -2 -11 4 -37 8 -57 8 -39 1 -50 -13 -43 -54 8 -50 18 -62 72 -86 30
-13 59 -29 65 -36 5 -6 16 -9 24 -6 10 3 14 -2 14 -19 0 -34 -23 -63 -72 -88
-51 -26 -65 -41 -95 -96 -27 -49 -28 -54 -9 -80 14 -18 16 -17 60 25 l45 44
38 -18 c54 -25 77 -46 61 -57 -7 -4 -23 -8 -35 -8 -36 0 -28 -33 24 -101 32
-41 56 -62 75 -66 16 -3 31 -10 34 -14 4 -8 63 -38 84 -44 34 -9 52 -20 60
-36 9 -15 7 -19 -6 -19 -10 0 -26 8 -36 17 -18 16 -18 15 -12 -40 6 -48 4 -57
-9 -57 -9 0 -19 5 -22 10 -3 6 -12 10 -20 10 -10 0 -13 -12 -12 -42 l2 -43
-112 4 c-113 3 -131 -2 -98 -29 8 -7 15 -20 15 -29 0 -9 41 -56 91 -104 49
-49 95 -100 100 -114 5 -15 7 -45 4 -67 -12 -88 -12 -106 1 -117 11 -9 24 -2
60 30 53 47 74 52 74 17 0 -13 9 -35 20 -49 29 -37 25 -52 -21 -77 -36 -18
-46 -19 -70 -9 -16 6 -37 8 -46 4 -33 -13 -102 -13 -113 0 -5 7 -9 32 -8 56 5
98 -1 137 -27 166 l-25 28 -20 -27 c-26 -34 -84 -45 -131 -25 -47 19 -109 63
-102 71 4 3 1 6 -5 6 -14 0 -16 -16 -3 -25 11 -6 61 -112 61 -128 0 -13 -25
-32 -84 -63 l-50 -26 57 -53 c52 -49 56 -56 50 -85 -6 -31 -5 -32 28 -28 33 3
34 2 53 -54 10 -32 23 -58 30 -58 6 0 22 23 36 51 13 28 30 55 36 60 20 16 44
-1 44 -31 0 -36 16 -47 30 -20 6 11 18 20 26 20 20 0 61 -48 75 -89 18 -52 -3
-65 -186 -113 -52 -14 -76 -37 -69 -65 4 -13 13 -23 20 -23 8 0 14 -6 14 -12
1 -19 45 -66 66 -70 26 -5 30 -35 6 -42 -31 -10 -104 -87 -99 -105 2 -9 -2
-23 -10 -30 -12 -11 -12 -15 1 -30 9 -10 13 -21 9 -24 -3 -4 -1 -7 6 -7 7 0
10 -4 7 -9 -4 -5 0 -11 6 -14 7 -2 10 -7 7 -11 -8 -8 -181 138 -254 215 -33
35 -46 51 -29 36 37 -34 68 -34 99 -2 25 24 33 55 15 55 -5 0 -10 14 -10 30 0
36 -25 100 -38 100 -6 0 -14 21 -19 47 -8 46 -10 49 -73 80 -52 26 -67 30 -79
20 -26 -20 -30 -31 -24 -54 3 -15 1 -23 -7 -23 -7 0 -10 -7 -7 -15 4 -8 2 -17
-4 -21 -6 -3 -8 -12 -6 -18 3 -7 1 -19 -3 -26 -5 -8 -6 -18 -3 -23 3 -5 9 -3
14 4 4 7 12 10 16 5 4 -5 2 -11 -5 -13 -6 -3 -9 -10 -5 -16 4 -7 -5 -4 -19 5
-101 66 -293 168 -306 163 -9 -3 -13 -3 -9 1 9 9 -43 45 -55 38 -16 -10 -7
-26 12 -21 11 3 20 2 20 -3 0 -11 -38 -20 -42 -9 -2 5 -18 10 -37 12 -18 2
-38 11 -43 21 -5 9 -14 16 -21 16 -7 0 -6 -4 3 -10 21 -13 6 -12 -24 1 -14 7
-23 17 -19 22 4 6 0 8 -10 4 -22 -8 -78 3 -71 14 3 5 1 9 -5 9 -5 0 -13 -4
-16 -10 -3 -5 -11 -10 -16 -10 -6 0 -7 5 -4 10 8 13 -1 13 -26 0 -11 -6 -19
-7 -19 -1 0 16 -28 20 -79 12 -41 -6 -51 -5 -51 6 0 18 -32 13 -36 -5 -1 -7 0
-8 3 -2 2 5 10 10 16 10 22 0 -12 -23 -39 -26 -24 -3 -25 -2 -8 11 11 7 16 17
11 21 -4 4 -7 2 -7 -4 0 -6 -7 -9 -15 -6 -9 4 -15 0 -15 -7 0 -12 -2 -12 -9 0
-7 10 -13 11 -30 2 -12 -7 -26 -9 -31 -6 -5 3 -26 -1 -46 -10 -40 -17 -68 -20
-60 -6 3 4 -6 6 -19 3 -14 -2 -23 -7 -21 -11 2 -3 -12 -6 -32 -6 -21 0 -43 -4
-51 -10 -12 -8 -13 -6 -8 7 4 12 1 16 -13 15 -14 -1 -16 -4 -8 -14 10 -13 -1
-18 -26 -14 -5 1 -12 -2 -15 -7 -3 -5 -22 -12 -41 -15 -33 -6 -34 -6 -15 10
l20 16 -20 -8 c-11 -5 -31 -8 -44 -8 -18 1 -20 -1 -10 -8 11 -7 11 -9 -3 -9
-9 0 -19 -6 -21 -12 -4 -10 -6 -10 -6 0 -1 10 -7 9 -29 -2 -18 -9 -33 -11 -43
-5 -12 7 -12 9 0 9 8 0 12 2 9 5 -3 3 -16 1 -29 -4 -13 -5 -17 -10 -9 -11 12
0 11 -3 -3 -11 -9 -6 -16 -13 -13 -17 2 -4 -6 -7 -19 -7 -13 0 -21 5 -18 10 3
6 0 4 -8 -2 -19 -18 -29 -16 -22 5 5 13 1 11 -14 -5 -13 -15 -28 -21 -43 -18
-12 2 -32 -1 -44 -7 -27 -15 -43 -19 -84 -21 -32 -1 -32 -1 -10 -14 13 -7 20
-13 16 -14 -5 -1 -11 -2 -15 -4 -5 -1 -21 -5 -38 -9 -16 -4 -41 -13 -54 -19
-13 -7 -33 -11 -45 -9 -17 2 -18 1 -6 -8 13 -9 12 -10 -5 -7 -11 2 -19 9 -17
17 2 10 0 11 -10 3 -7 -6 -20 -13 -28 -17 -8 -3 -5 -4 8 -2 12 2 22 0 22 -4 0
-10 -61 -32 -68 -25 -3 3 0 5 6 5 7 0 12 5 12 10 0 18 -18 10 -25 -10 -4 -11
-10 -18 -15 -15 -5 3 -18 0 -29 -7 -14 -9 -23 -9 -33 0 -10 7 -18 8 -28 0 -12
-8 -12 -9 2 -4 10 3 20 1 23 -4 8 -12 -17 -19 -37 -9 -10 6 -31 2 -58 -10 -27
-12 -37 -21 -28 -25 7 -3 1 -4 -14 -2 -15 1 -25 0 -23 -4 3 -4 -5 -8 -18 -8
-12 0 -49 -9 -82 -21 -32 -11 -63 -17 -69 -14 -5 3 -6 1 -2 -5 5 -8 -4 -12
-29 -12 -22 0 -34 4 -30 10 3 6 -1 10 -9 10 -9 0 -15 -6 -13 -12 1 -7 -9 -14
-23 -15 -23 -2 -23 -2 -5 7 18 9 17 10 -5 5 -14 -2 -29 -5 -35 -5 -5 0 -3 -5
5 -11 13 -9 12 -10 -3 -5 -9 3 -39 1 -67 -4 -54 -10 -71 -11 -212 -7 -53 1
-94 -1 -91 -5 2 -5 -6 -4 -19 0 -13 5 -42 8 -65 7 -24 -1 -43 1 -43 5 0 3 -19
5 -42 4 -27 -1 -36 1 -27 7 16 10 15 10 -23 13 -16 1 -28 -1 -28 -5 0 -3 -7
-6 -15 -6 -11 0 -12 3 -3 14 10 12 7 13 -15 8 -16 -4 -33 -2 -42 5 -8 6 -19 9
-25 5 -5 -3 -10 -1 -10 6 0 8 -11 10 -35 6 -19 -3 -37 -2 -39 2 -3 4 -28 7
-56 7 -45 -1 -49 0 -33 13 16 12 15 13 -12 7 -16 -4 -39 -10 -50 -13 -17 -5
-18 -4 -7 10 12 14 10 15 -25 11 -21 -3 -46 -7 -55 -8 -11 -3 -15 1 -11 10 4
12 1 13 -21 3 -21 -10 -29 -9 -44 4 -10 10 -23 17 -28 17 -5 0 -2 -5 6 -11 11
-8 -8 -8 -65 -3 -44 4 -97 6 -117 5 -25 -1 -38 3 -38 11 0 9 -2 10 -8 2 -4 -6
-36 -14 -72 -18 -146 -13 -164 -16 -170 -26 -4 -6 -15 -8 -26 -4 -12 4 -15 3
-7 -3 20 -14 -14 -56 -40 -49 -22 5 -88 -24 -120 -55 -12 -10 -27 -19 -34 -19
-7 0 -13 -9 -13 -21 0 -19 -5 -21 -43 -18 -38 4 -43 2 -39 -13 3 -13 -2 -18
-16 -18 -11 0 -29 -11 -40 -25 -13 -16 -30 -25 -47 -25 -18 0 -29 -6 -32 -20
-3 -11 -9 -20 -14 -20 -5 0 -9 -9 -9 -20 0 -15 -7 -20 -24 -20 -14 0 -33 -10
-43 -23 -10 -13 -25 -26 -34 -29 -9 -3 -27 -40 -41 -82 l-25 -76 -21 19 c-12
10 -22 24 -22 30 0 7 -4 9 -10 6 -6 -4 -7 1 -3 11 4 12 3 15 -5 10 -7 -4 -10
-2 -7 6 3 8 -1 31 -10 53 -8 22 -13 30 -11 18 4 -24 -9 -32 -17 -10 -4 9 -6 9
-6 0 -1 -7 -10 -13 -21 -13 -11 0 -20 -7 -20 -15 0 -11 -11 -15 -39 -15 -33 0
-40 -4 -43 -22 -3 -22 -7 -23 -118 -26 -64 -1 -116 -7 -118 -12 -5 -13 -69
-13 -77 0 -8 13 -85 13 -85 0 0 -5 -18 -10 -39 -10 -22 0 -43 5 -46 10 -7 12
-155 14 -155 2 0 -4 -21 -14 -46 -21 -35 -11 -50 -11 -67 -2 -67 36 -77 43
-77 50 0 5 -12 11 -26 14 -18 3 -22 1 -15 -6 21 -21 11 -28 -36 -25 -44 3 -48
5 -48 29 0 19 -5 25 -23 27 -15 1 -21 -2 -17 -11 4 -6 -5 1 -18 17 -14 16 -27
24 -31 18 -3 -6 0 -17 7 -24 12 -11 12 -16 1 -26 -7 -7 -17 -12 -23 -12 -5 0
-8 -11 -7 -25 0 -16 6 -23 14 -20 8 3 10 0 6 -6 -7 -12 63 -74 86 -75 8 0 20
3 25 7 14 9 45 7 39 -2 -2 -5 -12 -5 -21 -2 -12 5 -15 2 -10 -10 6 -15 3 -16
-13 -7 -11 6 -20 8 -20 5 0 -6 73 -74 80 -75 3 0 44 -38 90 -83 95 -93 169
-141 248 -158 28 -7 52 -16 52 -21 0 -4 7 -8 15 -8 31 0 181 -67 440 -197 149
-75 412 -204 585 -288 339 -163 458 -234 635 -383 207 -173 277 -206 435 -206
89 1 159 12 462 72 196 40 430 83 520 97 90 14 231 37 315 50 248 41 620 76
861 82 152 4 222 2 222 -5 0 -6 -6 -13 -12 -15 -8 -3 -6 -6 5 -6 9 -1 17 4 17
9 0 11 52 13 100 4 22 -5 28 -9 18 -15 -17 -11 -51 -12 -44 -1 3 5 -5 7 -17 6
-33 -4 -33 -4 -21 -12 7 -4 -17 -8 -53 -9 -56 -2 -68 -6 -94 -33 -17 -16 -37
-30 -45 -30 -8 0 -14 -4 -14 -10 0 -5 -18 -10 -40 -10 -31 0 -40 -4 -40 -17
-1 -19 -65 -73 -87 -73 -7 0 -13 -4 -13 -10 0 -5 5 -10 10 -10 6 0 10 -4 10
-10 0 -5 -10 -10 -23 -10 -13 0 -29 -6 -35 -12 -9 -9 -15 -10 -20 -2 -8 13
-82 6 -82 -7 0 -5 -7 -9 -15 -9 -8 0 -15 -4 -15 -10 0 -5 -11 -10 -25 -10 -14
0 -25 -4 -25 -9 0 -10 -100 -21 -233 -25 -85 -3 -101 -6 -122 -26 -19 -18 -38
-23 -102 -26 -119 -5 -207 -15 -219 -25 -21 -17 -153 -29 -336 -29 -181 0
-188 -1 -188 -20 0 -18 -7 -20 -80 -20 -47 0 -80 4 -80 10 0 6 -18 10 -40 10
-22 0 -40 -4 -40 -10 0 -5 18 -10 40 -10 22 0 40 -4 40 -10 0 -5 -45 -9 -107
-8 -181 1 -213 0 -213 -11 0 -7 -30 -11 -79 -11 -44 0 -81 -4 -83 -9 -1 -5
-20 -12 -40 -16 -31 -6 -38 -4 -38 9 0 12 -10 16 -40 16 -22 0 -40 -4 -40 -10
0 -5 -9 -10 -20 -10 -13 0 -18 -5 -14 -15 4 -9 0 -15 -10 -15 -9 0 -16 7 -16
15 0 8 -4 15 -10 15 -5 0 -10 -7 -10 -15 0 -13 -12 -14 -80 -9 -70 6 -80 5
-80 -10 0 -12 -10 -16 -40 -16 -22 0 -40 5 -40 10 0 6 -18 10 -40 10 -22 0
-40 -3 -40 -8 0 -4 -19 -8 -42 -8 -24 0 -164 -3 -311 -6 -222 -4 -271 -3 -282
9 -26 25 -96 43 -170 43 -49 0 -75 4 -78 13 -4 9 -6 9 -6 0 -1 -7 -14 -13 -30
-13 -16 0 -32 -6 -35 -12 -3 -7 -3 -2 0 11 6 23 5 24 -40 19 -30 -4 -43 -2
-39 5 3 6 1 7 -6 3 -6 -4 -46 -4 -88 -1 -67 7 -80 11 -113 41 l-37 34 -121 0
c-95 0 -121 3 -125 14 -3 8 -23 18 -44 21 -21 3 -66 14 -99 25 -34 11 -73 20
-86 20 -14 0 -33 9 -43 20 -10 11 -22 20 -26 20 -13 0 -52 19 -94 45 -22 14
-50 31 -62 37 -13 6 -23 17 -23 24 0 25 -68 40 -153 35 -155 -10 -270 -7 -275
7 -2 6 3 12 12 12 9 0 16 5 16 11 0 11 -25 8 -64 -7 -22 -8 -20 12 2 25 16 10
16 10 0 11 -10 0 -18 7 -18 15 0 8 -17 19 -42 26 -24 7 -48 19 -55 27 -7 9
-23 13 -41 10 -22 -3 -29 -1 -25 9 3 7 -6 18 -20 24 -22 10 -25 17 -23 58 1
25 4 51 8 56 17 27 6 255 -12 255 -4 0 -10 12 -13 28 -8 41 -50 97 -75 100
-12 2 -22 10 -22 18 0 10 -12 14 -40 14 -22 0 -40 -4 -40 -10 0 -13 -71 -25
-79 -13 -4 7 -35 6 -87 -2 -82 -12 -146 -41 -158 -71 -4 -10 -2 -13 6 -8 8 5
9 2 5 -10 -4 -10 -7 -20 -7 -22 0 -2 -12 -4 -26 -4 -20 0 -24 4 -19 19 4 14 0
21 -15 26 -15 5 -20 15 -20 38 0 29 -4 33 -40 45 -22 6 -51 12 -65 12 -18 0
-25 5 -25 20 0 11 -5 20 -10 20 -6 0 -20 8 -31 19 -17 16 -18 19 -4 31 10 8
15 9 15 1 0 -6 19 -11 46 -11 38 0 45 3 40 16 -3 9 -6 28 -6 42 0 18 -3 23 -8
14 -7 -10 -14 -7 -33 11 -31 30 -117 87 -131 87 -6 0 -36 -8 -66 -17 -53 -17
-54 -17 -68 2 -7 11 -25 32 -40 46 -21 21 -25 33 -20 53 5 21 17 29 68 44 63
20 63 20 60 55 -3 31 0 36 20 39 20 3 23 8 22 45 -1 41 -28 88 -44 78 -9 -6
-42 11 -89 44 -42 30 -54 24 -98 -55 -31 -54 -34 -65 -31 -129 3 -68 3 -70
-24 -75 -14 -3 -36 -17 -48 -32 -12 -16 -26 -28 -32 -28 -16 0 -37 32 -38 57
0 26 -36 51 -43 30 -3 -9 -8 -9 -21 2 -9 8 -20 10 -24 6 -4 -4 -1 -10 6 -12
13 -5 17 -33 4 -33 -4 0 -16 10 -26 21 -23 28 -15 89 13 89 24 0 34 25 16 40
-7 6 -26 10 -42 8 -22 -2 -28 1 -29 17 0 21 14 46 25 42 3 -1 35 26 70 59 l64
62 -41 21 c-52 26 -60 40 -36 60 24 21 58 80 50 88 -3 4 -1 12 5 19 14 18 -26
76 -49 72 -12 -2 -17 4 -16 20 1 35 -53 47 -156 33 -66 -9 -85 -8 -92 1 -4 7
-6 47 -3 87 l4 75 -24 -30 c-13 -16 -24 -33 -25 -37 0 -5 -10 -7 -23 -5 -15 2
-23 11 -26 28 -4 31 -38 80 -56 80 -16 0 -25 22 -25 66 0 19 -7 51 -15 71 -8
19 -15 44 -15 54 0 17 36 97 49 109 13 11 49 110 42 114 -4 3 -27 3 -52 0
-117 -14 -118 -14 -149 25 -17 19 -30 43 -30 52 0 9 -7 22 -15 29 -8 7 -12 17
-9 22 4 6 -10 8 -36 7 -31 -3 -44 1 -51 14 -6 9 -15 17 -20 17 -6 0 -22 9 -36
20 -14 11 -39 20 -54 20 l-29 0 0 -1960 0 -1960 5120 0 5120 0 0 2290 0 2290
-29 0 c-17 0 -33 -4 -36 -10 -6 -10 -79 22 -90 40 -9 15 -32 12 -39 -5 -3 -9
7 -30 25 -50 17 -19 28 -39 25 -44 -6 -10 -67 -22 -127 -26 -21 -1 -47 -11
-60 -24 -12 -11 -26 -21 -31 -21 -4 0 -8 25 -8 56 0 86 -17 130 -64 167 -52
40 -56 45 -56 83 0 63 11 94 34 94 19 0 96 53 104 72 2 5 12 8 23 8 18 0 19
-5 13 -65 -8 -76 -11 -76 94 -12 55 33 68 37 88 28 18 -8 28 -6 49 10 21 17
28 19 40 9 8 -7 15 -18 15 -24 1 -6 7 -24 15 -41 12 -26 13 1 14 230 l1 259
-22 -22 c-22 -21 -34 -92 -16 -92 12 0 10 -32 -4 -62 l-12 -25 -41 20 c-22 12
-46 27 -53 34 -7 7 -22 13 -32 13 -14 0 -22 11 -30 39 -18 69 -100 109 -108
54 -4 -29 -10 -29 -112 7 -88 31 -125 37 -135 20z m443 -1152 c-7 -19 -38 -22
-38 -4 0 10 9 16 21 16 12 0 19 -5 17 -12z m-474 -477 c18 -19 16 -51 -2 -51
-18 0 -62 42 -62 59 0 37 26 34 64 -8z m-2437 -207 c-3 -3 -12 -4 -19 -1 -8 3
-5 6 6 6 11 1 17 -2 13 -5z m1808 -116 c5 4 5 2 1 -5 -8 -14 -36 -6 -36 9 0 7
5 6 13 -1 8 -6 18 -7 22 -3z m-2245 -35 c0 -3 -7 -3 -15 0 -8 4 -17 2 -20 -3
-4 -6 -11 -10 -18 -10 -6 0 -2 6 8 14 17 12 45 12 45 -1z m-3890 -543 c0 -5
-2 -10 -4 -10 -3 0 -8 5 -11 10 -3 6 -1 10 4 10 6 0 11 -4 11 -10z m-1603
-206 c-3 -3 -12 -4 -19 -1 -8 3 -5 6 6 6 11 1 17 -2 13 -5z m6743 -1028 c0 -2
-7 -7 -16 -10 -8 -3 -12 -2 -9 4 6 10 25 14 25 6z"/>
<path d="M6424 5214 c1 -24 4 -44 9 -44 4 0 7 6 8 13 0 6 3 24 5 38 3 17 -1
29 -9 32 -11 4 -14 -6 -13 -39z"/>
<path d="M10160 5244 c0 -8 5 -12 10 -9 6 4 8 11 5 16 -9 14 -15 11 -15 -7z"/>
<path d="M7246 5225 c-5 -13 -2 -14 15 -4 11 6 27 8 35 5 8 -3 14 -1 14 4 0
16 -57 11 -64 -5z"/>
<path d="M6382 5182 c12 -45 23 -58 34 -41 4 7 3 14 -4 17 -7 2 -12 14 -12 27
0 12 -6 25 -14 28 -11 5 -12 -1 -4 -31z"/>
<path d="M7210 5207 c0 -2 9 -14 20 -27 22 -26 27 -15 6 13 -12 15 -26 23 -26
14z"/>
<path d="M7268 5193 c7 -3 16 -2 19 1 4 3 -2 6 -13 5 -11 0 -14 -3 -6 -6z"/>
<path d="M7303 5180 c-1 -11 2 -22 8 -25 5 -3 6 1 2 11 -5 14 -3 15 16 5 21
-11 21 -11 9 8 -16 27 -33 27 -35 1z"/>
<path d="M6323 5178 c4 -12 2 -15 -9 -11 -12 4 -15 -1 -12 -27 3 -26 9 -34 28
-37 34 -5 34 -7 1 -46 -17 -19 -31 -39 -31 -45 0 -5 -7 -15 -15 -22 -12 -10
-15 -9 -16 6 -1 11 -1 24 0 30 1 6 -7 17 -16 25 -15 11 -16 11 -5 -1 17 -19
15 -33 -3 -26 -23 8 -18 -8 10 -34 29 -27 26 -29 94 58 l34 43 -18 40 c-19 40
-55 82 -42 47z"/>
<path d="M8357 5140 c-4 -16 -9 -59 -13 -95 -6 -56 -5 -65 8 -60 30 12 39 52
27 121 -6 35 -12 64 -14 64 -1 0 -5 -13 -8 -30z"/>
<path d="M7275 5150 c3 -5 11 -10 16 -10 6 0 7 5 4 10 -3 6 -11 10 -16 10 -6
0 -7 -4 -4 -10z"/>
<path d="M8646 5149 c-15 -4 -36 -15 -45 -23 -9 -8 -28 -19 -41 -25 -19 -7
-21 -10 -7 -10 11 -1 44 -17 75 -36 70 -42 140 -59 207 -49 27 4 43 9 35 11
-8 3 -32 27 -53 54 -54 69 -112 96 -171 78z"/>
<path d="M7253 5135 c0 -8 7 -15 15 -15 12 0 12 3 2 15 -7 8 -13 15 -15 15 -1
0 -2 -7 -2 -15z"/>
<path d="M14 5023 c-7 -59 -10 -761 -3 -850 2 -26 7 -33 24 -33 12 0 24 3 27
6 3 3 37 6 74 8 42 1 69 7 72 14 2 7 22 22 43 33 22 11 45 32 52 47 6 15 17
30 24 35 8 5 9 15 2 36 -7 20 -6 40 6 75 15 45 15 49 -1 67 -9 10 -13 19 -8
19 5 0 1 5 -8 11 -25 14 -22 28 12 61 17 16 33 42 37 58 3 17 12 30 19 30 19
0 18 86 -1 120 -12 22 -14 23 -20 8 -9 -22 -25 -24 -25 -3 0 8 5 15 10 15 6 0
10 5 10 10 0 14 -27 12 -33 -2 -3 -7 -6 0 -6 15 -1 16 -10 40 -21 54 -12 16
-20 41 -20 64 0 32 -3 39 -20 39 -22 0 -27 15 -7 23 9 4 10 6 0 6 -21 1 -15
41 7 49 11 4 -11 7 -51 6 -38 -1 -73 -4 -77 -8 -3 -4 1 -4 11 0 10 3 17 1 17
-5 0 -6 -11 -11 -24 -11 -13 0 -29 -7 -36 -15 -21 -25 -29 -17 -32 33 -2 39
-7 48 -24 50 -19 3 -22 -4 -30 -65z m376 -293 c0 -5 -7 -10 -16 -10 -8 0 -12
5 -9 10 3 6 10 10 16 10 5 0 9 -4 9 -10z"/>
<path d="M6202 5049 c-10 -16 -9 -19 4 -19 8 0 13 4 10 9 -4 5 -1 11 6 13 7 3
8 7 2 11 -5 3 -15 -3 -22 -14z"/>
<path d="M7320 5020 c0 -17 7 -47 15 -67 20 -49 19 -70 -6 -76 -12 -3 -18 -10
-14 -17 5 -8 13 -7 28 3 40 26 32 187 -9 187 -9 0 -14 -11 -14 -30z"/>
<path d="M6090 5015 c-10 -12 -10 -15 3 -15 19 0 31 16 18 24 -5 3 -14 -1 -21
-9z"/>
<path d="M8187 5013 c-13 -12 -7 -40 8 -40 17 0 20 13 5 22 -6 4 -8 11 -5 16
7 10 1 12 -8 2z"/>
<path d="M8221 5003 c-1 -13 4 -23 9 -23 6 0 10 -8 9 -17 0 -11 -3 -13 -6 -5
-11 27 -21 10 -12 -20 5 -18 9 -37 9 -43 -1 -15 -24 28 -25 44 0 8 -6 16 -12
18 -19 7 -16 -44 3 -55 14 -8 14 -10 -1 -25 -21 -21 -32 -15 -40 22 -7 31 -31
58 -42 48 -3 -4 3 -19 13 -34 10 -15 17 -31 16 -35 -1 -5 3 -8 8 -8 6 0 10 -7
10 -16 0 -11 -6 -15 -20 -11 -11 3 -18 1 -14 -4 3 -5 -1 -9 -9 -9 -20 0 -43
30 -39 52 2 10 -1 18 -7 18 -19 0 -22 -20 -7 -47 31 -57 28 -57 97 -17 35 21
67 42 71 47 12 18 20 100 10 106 -5 3 -12 13 -15 21 -4 10 -6 8 -6 -7z"/>
<path d="M6193 4983 c19 -5 24 -24 5 -20 -8 1 -12 -6 -10 -18 6 -36 20 -39 48
-12 22 22 24 29 14 42 -7 8 -27 14 -44 14 -17 -1 -23 -3 -13 -6z m22 -53 c3
-5 1 -10 -4 -10 -6 0 -11 5 -11 10 0 6 2 10 4 10 3 0 8 -4 11 -10z"/>
<path d="M7153 4963 c-33 -17 -65 -44 -59 -51 3 -2 19 6 37 18 17 13 45 26 63
30 27 5 29 7 9 12 -12 3 -34 -1 -50 -9z"/>
<path d="M8291 4960 c0 -15 -4 -30 -8 -36 -5 -5 -2 -4 5 2 8 6 12 22 9 35 -4
24 -4 24 -6 -1z"/>
<path d="M6000 4941 c14 -11 29 -21 33 -21 5 0 6 -4 3 -9 -3 -5 1 -11 9 -15
40 -15 1 32 -45 53 l-25 12 25 -20z"/>
<path d="M6125 4925 c-29 -25 -35 -34 -22 -35 9 0 17 5 17 10 0 6 7 10 16 10
8 0 13 4 9 9 -3 6 3 14 12 20 10 5 16 12 13 15 -3 2 -23 -11 -45 -29z"/>
<path d="M7240 4940 c9 -16 8 -20 -7 -21 -10 0 2 -6 27 -13 25 -6 47 -10 50
-8 7 5 -58 62 -71 62 -6 0 -6 -7 1 -20z"/>
<path d="M7395 4950 c-3 -6 1 -7 9 -4 18 7 21 14 7 14 -6 0 -13 -4 -16 -10z"/>
<path d="M6060 4941 c0 -5 7 -11 15 -15 8 -3 15 -1 15 3 0 5 -7 11 -15 15 -8
3 -15 1 -15 -3z"/>
<path d="M8085 4921 c-3 -6 3 -19 14 -30 13 -13 16 -21 8 -25 -9 -3 -9 -5 0
-5 22 -2 24 19 4 44 -11 14 -22 21 -26 16z"/>
<path d="M7423 4913 c-32 -6 -30 -46 4 -78 34 -31 45 -32 34 -2 -20 56 -21 75
-4 80 23 6 -4 6 -34 0z"/>
<path d="M7538 4900 c12 -12 22 -24 22 -28 0 -4 7 -16 15 -26 14 -19 15 -19
35 -1 11 10 20 24 20 30 0 13 -69 45 -97 45 -14 0 -13 -3 5 -20z"/>
<path d="M6157 4891 c-4 -17 -3 -21 5 -13 5 5 8 16 6 23 -3 8 -7 3 -11 -10z"/>
<path d="M7138 4903 c12 -2 30 -2 40 0 9 3 -1 5 -23 4 -22 0 -30 -2 -17 -4z"/>
<path d="M6000 4886 c0 -2 7 -6 15 -10 8 -3 15 -1 15 4 0 6 -7 10 -15 10 -8 0
-15 -2 -15 -4z"/>
<path d="M6070 4878 c0 -7 5 -20 10 -28 8 -12 10 -11 10 7 0 12 -4 25 -10 28
-5 3 -10 0 -10 -7z"/>
<path d="M8494 4858 c-3 -5 -3 -27 1 -48 6 -33 11 -40 30 -40 13 0 27 5 31 11
5 8 10 6 16 -5 9 -17 63 -22 85 -8 6 4 15 20 18 35 8 31 -8 36 -39 12 -37 -28
-41 -17 -19 43 10 24 -33 12 -49 -15 -16 -26 -17 -26 -18 -7 0 15 -8 23 -25
26 -14 3 -28 1 -31 -4z m36 -23 c0 -8 -7 -15 -15 -15 -8 0 -15 7 -15 15 0 8 7
15 15 15 8 0 15 -7 15 -15z m70 11 c0 -3 -4 -8 -10 -11 -5 -3 -10 -1 -10 4 0
6 5 11 10 11 6 0 10 -2 10 -4z m-65 -46 c3 -5 -1 -10 -9 -10 -9 0 -16 5 -16
10 0 6 4 10 9 10 6 0 13 -4 16 -10z"/>
<path d="M5987 4842 c-10 -10 -14 -23 -10 -27 5 -5 1 -4 -8 3 -13 10 -18 8
-27 -14 -17 -35 -16 -36 16 -20 15 8 35 28 45 45 20 34 10 42 -16 13z"/>
<path d="M7967 4846 c-5 -11 -3 -15 5 -10 7 4 8 3 4 -4 -4 -6 -12 -9 -19 -6
-20 7 -46 -28 -44 -59 2 -23 6 -27 22 -22 11 3 32 8 48 11 32 8 34 25 8 73
-14 27 -19 30 -24 17z m-12 -65 c20 -23 20 -23 0 -20 -25 5 -35 18 -28 36 3 8
6 13 7 11 1 -2 10 -14 21 -27z"/>
<path d="M7493 4828 c-3 -31 15 -48 48 -48 29 0 29 0 15 29 -14 25 -34 41 -55
41 -4 0 -7 -10 -8 -22z"/>
<path d="M7815 4798 c-9 -32 -11 -68 -4 -68 5 0 9 6 9 13 0 8 3 7 10 -3 5 -8
12 -11 16 -7 4 4 0 15 -10 25 -9 11 -14 26 -10 36 3 9 3 16 0 16 -4 0 -8 -6
-11 -12z"/>
<path d="M5807 4779 c7 -7 15 -10 18 -7 3 3 -2 9 -12 12 -14 6 -15 5 -6 -5z"/>
<path d="M5852 4754 c10 -10 20 -15 24 -12 3 4 -5 12 -18 18 -22 12 -22 12 -6
-6z"/>
<path d="M8613 4704 c-61 -47 -57 -43 -51 -50 3 -3 15 0 27 7 17 12 23 10 44
-9 25 -24 51 -29 45 -9 -3 6 -14 13 -26 15 -28 4 -28 18 -2 25 14 3 20 14 20
31 0 14 -2 26 -4 26 -3 0 -26 -16 -53 -36z"/>
<path d="M8530 4696 c0 -8 5 -18 10 -21 6 -3 10 3 10 14 0 12 -4 21 -10 21 -5
0 -10 -6 -10 -14z"/>
<path d="M5720 4686 c0 -2 7 -7 16 -10 8 -3 12 -2 9 4 -6 10 -25 14 -25 6z"/>
<path d="M8610 4625 c7 -8 21 -15 31 -15 10 0 21 -4 24 -10 3 -5 12 -10 18
-10 20 0 -46 49 -67 50 -15 0 -16 -3 -6 -15z"/>
<path d="M8663 4564 c16 -14 31 -23 35 -19 8 8 -35 45 -52 45 -6 0 2 -12 17
-26z"/>
<path d="M8595 4490 c3 -5 11 -10 16 -10 6 0 7 5 4 10 -3 6 -11 10 -16 10 -6
0 -7 -4 -4 -10z"/>
<path d="M5810 4460 c0 -5 5 -10 11 -10 5 0 7 5 4 10 -3 6 -8 10 -11 10 -2 0
-4 -4 -4 -10z"/>
<path d="M5795 4383 c11 -3 28 -15 37 -26 10 -11 18 -15 18 -9 0 5 10 8 23 6
20 -4 20 -4 -3 7 -14 7 -28 13 -32 13 -3 1 -10 4 -14 9 -4 4 -17 6 -28 6 -20
-1 -20 -2 -1 -6z"/>
<path d="M6758 4303 c7 -3 16 -2 19 1 4 3 -2 6 -13 5 -11 0 -14 -3 -6 -6z"/>
<path d="M5880 4290 c-1 -8 -2 -18 -1 -22 0 -5 -7 -8 -16 -8 -11 -1 -7 -6 12
-14 34 -15 43 -13 28 6 -6 7 -13 22 -16 33 -3 13 -5 15 -7 5z"/>
<path d="M6544 4274 c3 -9 6 -18 6 -20 0 -3 4 -3 10 1 11 7 2 35 -12 35 -6 0
-7 -7 -4 -16z"/>
<path d="M6885 4255 c20 -8 32 -23 36 -41 l7 -29 1 28 1 27 43 -26 c23 -15 53
-36 67 -48 l25 -21 -18 22 c-22 25 -89 73 -109 77 -7 2 -26 8 -41 14 -39 16
-49 14 -12 -3z"/>
<path d="M6965 4260 c10 -16 68 -37 88 -32 23 6 22 22 -2 22 -11 0 -23 5 -26
10 -3 6 -20 10 -36 10 -18 0 -28 -4 -24 -10z"/>
<path d="M5833 4217 c0 -7 12 -13 26 -14 14 -1 19 1 11 4 -8 3 -20 10 -26 14
-6 5 -11 4 -11 -4z"/>
<path d="M5901 4185 c1 -11 5 -33 9 -50 l8 -30 1 35 c0 19 -4 42 -9 50 -8 12
-10 11 -9 -5z"/>
<path d="M5932 4186 c7 -8 15 -12 17 -11 5 6 -10 25 -20 25 -5 0 -4 -6 3 -14z"/>
<path d="M1580 4163 c-22 -7 -64 -27 -70 -33 -3 -3 -20 -16 -37 -29 -32 -21
-32 -23 -17 -47 15 -22 15 -24 0 -18 -9 3 -16 9 -16 13 0 4 -12 13 -27 20 -21
10 -28 9 -34 -1 -5 -7 -4 -14 1 -16 5 -2 6 -10 3 -19 -4 -9 2 -22 13 -31 14
-11 15 -13 3 -9 -13 4 -15 1 -12 -14 3 -10 10 -16 15 -13 5 3 8 -2 6 -12 -2
-13 3 -19 16 -17 13 1 15 -2 7 -10 -14 -14 -15 -30 -1 -22 5 3 20 -1 32 -9 12
-9 17 -16 10 -16 -7 0 -10 -4 -7 -10 3 -5 14 -10 24 -10 10 0 25 -8 32 -17 12
-15 12 -16 -4 -10 -11 4 -16 3 -12 -4 4 -5 16 -7 27 -3 17 5 19 3 13 -15 -6
-21 1 -26 33 -22 11 2 16 -11 14 -30 -1 -4 7 -5 16 -2 10 2 28 -5 41 -16 13
-11 31 -23 41 -26 10 -3 20 -15 23 -26 3 -12 10 -18 16 -14 7 3 8 0 5 -9 -7
-19 12 -22 20 -3 3 6 3 1 0 -12 -4 -15 -2 -21 4 -17 11 7 92 -42 92 -56 0 -4
9 -8 20 -8 11 0 20 5 20 10 0 6 5 10 12 10 9 0 9 -3 0 -12 -14 -14 -16 -38 -4
-38 5 0 14 12 21 26 11 24 8 29 -36 67 -109 95 -213 196 -213 208 0 7 59 -44
143 -123 22 -21 41 -38 44 -38 2 0 17 -10 33 -22 16 -12 33 -19 37 -15 3 4 1
7 -6 7 -15 0 -3 52 16 63 18 11 17 28 -2 21 -9 -4 -15 0 -15 10 0 9 -4 16 -10
16 -5 0 -10 17 -10 37 0 48 -29 155 -46 169 -9 7 -14 31 -14 63 0 50 -1 51
-30 51 -16 0 -30 4 -30 8 0 4 -12 15 -27 24 -16 9 -38 25 -50 36 -23 19 -50
21 -87 6 -14 -5 -17 -4 -12 4 7 12 1 14 -24 5z m-10 -363 c0 -5 -2 -10 -4 -10
-3 0 -8 5 -11 10 -3 6 -1 10 4 10 6 0 11 -4 11 -10z"/>
<path d="M8156 4108 c-27 -38 -12 -89 17 -58 9 10 9 11 -3 5 -13 -8 -13 -7 -1
8 7 9 10 17 5 17 -5 0 -1 5 8 11 10 5 15 16 12 24 -8 21 -20 19 -38 -7z"/>
<path d="M6347 4079 c7 -7 15 -10 18 -7 3 3 -2 9 -12 12 -14 6 -15 5 -6 -5z"/>
<path d="M8000 4066 c0 -2 7 -9 15 -16 9 -7 15 -8 15 -2 0 5 -7 12 -15 16 -8
3 -15 4 -15 2z"/>
<path d="M5951 4044 c0 -11 3 -14 6 -6 3 7 2 16 -1 19 -3 4 -6 -2 -5 -13z"/>
<path d="M7445 4015 c20 -15 39 -24 42 -22 5 5 -60 47 -72 47 -4 0 9 -11 30
-25z"/>
<path d="M7211 4009 c-2 -28 23 -41 45 -24 18 14 18 15 -8 11 -19 -3 -28 0
-31 12 -4 15 -5 15 -6 1z"/>
<path d="M8865 3981 c-3 -12 -17 -29 -31 -37 -19 -13 -24 -25 -24 -61 0 -33
-4 -44 -13 -40 -9 3 -13 -6 -14 -29 -1 -34 11 -46 20 -21 4 9 8 8 16 -3 15
-21 14 -30 -3 -30 -8 0 -17 -4 -20 -8 -3 -5 8 -6 25 -4 24 3 28 1 23 -12 -9
-24 27 -20 89 10 28 14 66 29 82 33 29 7 30 8 30 69 0 35 -5 66 -11 70 -6 4
-13 15 -17 25 -5 12 -17 17 -47 17 -41 0 -79 14 -91 33 -4 5 -10 0 -14 -12z"/>
<path d="M7352 3940 c0 -14 2 -19 5 -12 2 6 2 18 0 25 -3 6 -5 1 -5 -13z"/>
<path d="M7261 3934 c0 -11 3 -14 6 -6 3 7 2 16 -1 19 -3 4 -6 -2 -5 -13z"/>
<path d="M7325 3920 c10 -11 20 -20 23 -20 3 0 -3 9 -13 20 -10 11 -20 20 -23
20 -3 0 3 -9 13 -20z"/>
<path d="M1920 3788 c0 -16 5 -28 10 -28 13 0 13 20 0 40 -8 12 -10 9 -10 -12z"/>
<path d="M1948 3673 c7 -3 16 -2 19 1 4 3 -2 6 -13 5 -11 0 -14 -3 -6 -6z"/>
<path d="M1925 3560 c-3 -11 -4 -24 -1 -29 4 -5 3 -11 -1 -14 -5 -2 -2 -2 5
-1 7 2 22 -2 32 -8 15 -10 22 -10 32 0 11 11 10 12 -4 7 -25 -10 -45 5 -24 17
16 9 16 11 0 29 -22 24 -31 24 -39 -1z"/>
<path d="M7465 3570 c-3 -6 1 -7 9 -4 18 7 21 14 7 14 -6 0 -13 -4 -16 -10z"/>
<path d="M1981 3481 c-8 -5 -9 -11 -3 -15 5 -3 12 1 16 9 6 17 6 18 -13 6z"/>
<path d="M7088 3453 c6 -2 18 -2 25 0 6 3 1 5 -13 5 -14 0 -19 -2 -12 -5z"/>
<path d="M7008 3423 c6 -2 18 -2 25 0 6 3 1 5 -13 5 -14 0 -19 -2 -12 -5z"/>
<path d="M5081 3336 c2 -2 18 -6 34 -10 22 -5 26 -4 15 4 -14 9 -59 15 -49 6z"/>
<path d="M2681 2866 c-8 -10 -7 -17 6 -27 16 -13 17 -12 5 3 -9 12 -10 18 -2
23 6 4 18 -1 25 -11 14 -18 14 -18 15 1 0 24 -33 31 -49 11z"/>
<path d="M2760 2851 c0 -12 -6 -21 -16 -21 -8 0 -13 -4 -10 -9 6 -9 56 9 56
20 0 4 -7 12 -15 19 -13 10 -15 9 -15 -9z"/>
<path d="M2890 2830 c0 -5 7 -10 16 -10 8 0 12 5 9 10 -3 6 -10 10 -16 10 -5
0 -9 -4 -9 -10z"/>
<path d="M3698 1073 c12 -2 32 -2 45 0 12 2 2 4 -23 4 -25 0 -35 -2 -22 -4z"/>
<path d="M4267 994 c-13 -13 -7 -24 14 -24 11 0 19 5 17 12 -5 14 -22 21 -31
12z"/>
</g>
</svg>
